solid CATIA STL
  facet normal  0.000000e+000  0.000000e+000  1.000000e+000
    outer loop
      vertex  0.000000e+000  0.000000e+000  5.000000e+001
      vertex  5.000000e+001  0.000000e+000  5.000000e+001
      vertex  1.421085e-014  5.000000e+001  5.000000e+001
    endloop
  endfacet
  facet normal  -0.000000e+000  0.000000e+000  1.000000e+000
    outer loop
      vertex  1.421085e-014  5.000000e+001  5.000000e+001
      vertex  5.000000e+001  0.000000e+000  5.000000e+001
      vertex  5.000000e+001  5.000000e+001  5.000000e+001
    endloop
  endfacet
  facet normal  0.000000e+000  -0.000000e+000 -1.000000e+000
    outer loop
      vertex  0.000000e+000  0.000000e+000  0.000000e+000
      vertex  1.421085e-014  5.000000e+001  0.000000e+000
      vertex  5.000000e+001  0.000000e+000  0.000000e+000
    endloop
  endfacet
  facet normal  0.000000e+000  0.000000e+000 -1.000000e+000
    outer loop
      vertex  5.000000e+001  0.000000e+000  0.000000e+000
      vertex  1.421085e-014  5.000000e+001  0.000000e+000
      vertex  5.000000e+001  5.000000e+001  0.000000e+000
    endloop
  endfacet
  facet normal -1.000000e+000  2.842171e-016  0.000000e+000
    outer loop
      vertex  1.421085e-014  5.000000e+001  0.000000e+000
      vertex  0.000000e+000  0.000000e+000  0.000000e+000
      vertex  1.421085e-014  5.000000e+001  5.000000e+001
    endloop
  endfacet
  facet normal -1.000000e+000  2.842171e-016  0.000000e+000
    outer loop
      vertex  1.421085e-014  5.000000e+001  5.000000e+001
      vertex  0.000000e+000  0.000000e+000  0.000000e+000
      vertex  0.000000e+000  0.000000e+000  5.000000e+001
    endloop
  endfacet
  facet normal  0.000000e+000  1.000000e+000  0.000000e+000
    outer loop
      vertex  5.000000e+001  5.000000e+001  0.000000e+000
      vertex  1.421085e-014  5.000000e+001  0.000000e+000
      vertex  5.000000e+001  5.000000e+001  5.000000e+001
    endloop
  endfacet
  facet normal  0.000000e+000  1.000000e+000  0.000000e+000
    outer loop
      vertex  5.000000e+001  5.000000e+001  5.000000e+001
      vertex  1.421085e-014  5.000000e+001  0.000000e+000
      vertex  1.421085e-014  5.000000e+001  5.000000e+001
    endloop
  endfacet
  facet normal  1.000000e+000  0.000000e+000  0.000000e+000
    outer loop
      vertex  5.000000e+001  0.000000e+000  0.000000e+000
      vertex  5.000000e+001  5.000000e+001  0.000000e+000
      vertex  5.000000e+001  0.000000e+000  5.000000e+001
    endloop
  endfacet
  facet normal  1.000000e+000  -0.000000e+000  0.000000e+000
    outer loop
      vertex  5.000000e+001  0.000000e+000  5.000000e+001
      vertex  5.000000e+001  5.000000e+001  0.000000e+000
      vertex  5.000000e+001  5.000000e+001  5.000000e+001
    endloop
  endfacet
  facet normal  0.000000e+000 -1.000000e+000  0.000000e+000
    outer loop
      vertex  0.000000e+000  0.000000e+000  0.000000e+000
      vertex  5.000000e+001  0.000000e+000  0.000000e+000
      vertex  0.000000e+000  0.000000e+000  5.000000e+001
    endloop
  endfacet
  facet normal  0.000000e+000 -1.000000e+000  0.000000e+000
    outer loop
      vertex  0.000000e+000  0.000000e+000  5.000000e+001
      vertex  5.000000e+001  0.000000e+000  0.000000e+000
      vertex  5.000000e+001  0.000000e+000  5.000000e+001
    endloop
  endfacet
  facet normal  0.000000e+000  0.000000e+000  1.000000e+000
    outer loop
      vertex  0.000000e+000  0.000000e+000  5.000000e+001
      vertex  5.000000e+001  0.000000e+000  5.000000e+001
      vertex  1.421085e-014  5.000000e+001  5.000000e+001
    endloop
  endfacet
  facet normal  -0.000000e+000  0.000000e+000  1.000000e+000
    outer loop
      vertex  1.421085e-014  5.000000e+001  5.000000e+001
      vertex  5.000000e+001  0.000000e+000  5.000000e+001
      vertex  5.000000e+001  5.000000e+001  5.000000e+001
    endloop
  endfacet
  facet normal  0.000000e+000  -0.000000e+000 -1.000000e+000
    outer loop
      vertex  0.000000e+000  0.000000e+000  0.000000e+000
      vertex  1.421085e-014  5.000000e+001  0.000000e+000
      vertex  5.000000e+001  0.000000e+000  0.000000e+000
    endloop
  endfacet
  facet normal  0.000000e+000  0.000000e+000 -1.000000e+000
    outer loop
      vertex  5.000000e+001  0.000000e+000  0.000000e+000
      vertex  1.421085e-014  5.000000e+001  0.000000e+000
      vertex  5.000000e+001  5.000000e+001  0.000000e+000
    endloop
  endfacet
  facet normal -1.000000e+000  2.842171e-016  0.000000e+000
    outer loop
      vertex  1.421085e-014  5.000000e+001  0.000000e+000
      vertex  0.000000e+000  0.000000e+000  0.000000e+000
      vertex  1.421085e-014  5.000000e+001  5.000000e+001
    endloop
  endfacet
  facet normal -1.000000e+000  2.842171e-016  0.000000e+000
    outer loop
      vertex  1.421085e-014  5.000000e+001  5.000000e+001
      vertex  0.000000e+000  0.000000e+000  0.000000e+000
      vertex  0.000000e+000  0.000000e+000  5.000000e+001
    endloop
  endfacet
  facet normal  0.000000e+000  1.000000e+000  0.000000e+000
    outer loop
      vertex  5.000000e+001  5.000000e+001  0.000000e+000
      vertex  1.421085e-014  5.000000e+001  0.000000e+000
      vertex  5.000000e+001  5.000000e+001  5.000000e+001
    endloop
  endfacet
  facet normal  0.000000e+000  1.000000e+000  0.000000e+000
    outer loop
      vertex  5.000000e+001  5.000000e+001  5.000000e+001
      vertex  1.421085e-014  5.000000e+001  0.000000e+000
      vertex  1.421085e-014  5.000000e+001  5.000000e+001
    endloop
  endfacet
  facet normal  1.000000e+000  0.000000e+000  0.000000e+000
    outer loop
      vertex  5.000000e+001  0.000000e+000  0.000000e+000
      vertex  5.000000e+001  5.000000e+001  0.000000e+000
      vertex  5.000000e+001  0.000000e+000  5.000000e+001
    endloop
  endfacet
  facet normal  1.000000e+000  -0.000000e+000  0.000000e+000
    outer loop
      vertex  5.000000e+001  0.000000e+000  5.000000e+001
      vertex  5.000000e+001  5.000000e+001  0.000000e+000
      vertex  5.000000e+001  5.000000e+001  5.000000e+001
    endloop
  endfacet
  facet normal  0.000000e+000 -1.000000e+000  0.000000e+000
    outer loop
      vertex  0.000000e+000  0.000000e+000  0.000000e+000
      vertex  5.000000e+001  0.000000e+000  0.000000e+000
      vertex  0.000000e+000  0.000000e+000  5.000000e+001
    endloop
  endfacet
  facet normal  0.000000e+000 -1.000000e+000  0.000000e+000
    outer loop
      vertex  0.000000e+000  0.000000e+000  5.000000e+001
      vertex  5.000000e+001  0.000000e+000  0.000000e+000
      vertex  5.000000e+001  0.000000e+000  5.000000e+001
    endloop
  endfacet
endsolid CATIA STL
