solid CATIA STL
  facet normal -2.588190e-001 -9.659258e-001  -0.000000e+000
    outer loop
      vertex  5.000000e+000  0.000000e+000  0.000000e+000
      vertex  5.000000e+000  0.000000e+000  4.500000e+001
      vertex  2.500000e+000  6.698730e-001  0.000000e+000
    endloop
  endfacet
  facet normal -2.588190e-001 -9.659258e-001  0.000000e+000
    outer loop
      vertex  2.500000e+000  6.698730e-001  0.000000e+000
      vertex  5.000000e+000  0.000000e+000  4.500000e+001
      vertex  2.500000e+000  6.698730e-001  4.500000e+001
    endloop
  endfacet
  facet normal -7.071068e-001 -7.071068e-001  -0.000000e+000
    outer loop
      vertex  2.500000e+000  6.698730e-001  0.000000e+000
      vertex  2.500000e+000  6.698730e-001  4.500000e+001
      vertex  6.698730e-001  2.500000e+000  0.000000e+000
    endloop
  endfacet
  facet normal -7.071068e-001 -7.071068e-001  0.000000e+000
    outer loop
      vertex  6.698730e-001  2.500000e+000  0.000000e+000
      vertex  2.500000e+000  6.698730e-001  4.500000e+001
      vertex  6.698730e-001  2.500000e+000  4.500000e+001
    endloop
  endfacet
  facet normal -9.659258e-001 -2.588190e-001  -0.000000e+000
    outer loop
      vertex  6.698730e-001  2.500000e+000  0.000000e+000
      vertex  6.698730e-001  2.500000e+000  4.500000e+001
      vertex  0.000000e+000  5.000000e+000  0.000000e+000
    endloop
  endfacet
  facet normal -9.659258e-001 -2.588190e-001  0.000000e+000
    outer loop
      vertex  0.000000e+000  5.000000e+000  0.000000e+000
      vertex  6.698730e-001  2.500000e+000  4.500000e+001
      vertex  0.000000e+000  5.000000e+000  4.500000e+001
    endloop
  endfacet
  facet normal  0.000000e+000  0.000000e+000  1.000000e+000
    outer loop
      vertex  5.000000e+000  5.000000e+000  5.000000e+001
      vertex  4.500000e+001  5.000000e+000  5.000000e+001
      vertex  5.000000e+000  4.500000e+001  5.000000e+001
    endloop
  endfacet
  facet normal  -0.000000e+000  0.000000e+000  1.000000e+000
    outer loop
      vertex  5.000000e+000  4.500000e+001  5.000000e+001
      vertex  4.500000e+001  5.000000e+000  5.000000e+001
      vertex  4.500000e+001  4.500000e+001  5.000000e+001
    endloop
  endfacet
  facet normal -1.000000e+000  0.000000e+000  0.000000e+000
    outer loop
      vertex  0.000000e+000  4.500000e+001  0.000000e+000
      vertex  0.000000e+000  5.000000e+000  0.000000e+000
      vertex  0.000000e+000  4.500000e+001  4.500000e+001
    endloop
  endfacet
  facet normal -1.000000e+000  -0.000000e+000  0.000000e+000
    outer loop
      vertex  0.000000e+000  4.500000e+001  4.500000e+001
      vertex  0.000000e+000  5.000000e+000  0.000000e+000
      vertex  0.000000e+000  5.000000e+000  4.500000e+001
    endloop
  endfacet
  facet normal  0.000000e+000  0.000000e+000 -9.999999e-001
    outer loop
      vertex  5.000000e+001  4.500000e+001  0.000000e+000
      vertex  6.698730e-001  4.750000e+001  0.000000e+000
      vertex  4.933013e+001  4.750000e+001  0.000000e+000
    endloop
  endfacet
  facet normal  0.000000e+000  0.000000e+000 -1.000000e+000
    outer loop
      vertex  4.933013e+001  4.750000e+001  0.000000e+000
      vertex  6.698730e-001  4.750000e+001  0.000000e+000
      vertex  2.500000e+000  4.933013e+001  0.000000e+000
    endloop
  endfacet
  facet normal  0.000000e+000  0.000000e+000 -1.000000e+000
    outer loop
      vertex  4.933013e+001  4.750000e+001  0.000000e+000
      vertex  2.500000e+000  4.933013e+001  0.000000e+000
      vertex  4.750000e+001  4.933013e+001  0.000000e+000
    endloop
  endfacet
  facet normal  0.000000e+000  0.000000e+000 -9.999999e-001
    outer loop
      vertex  4.750000e+001  4.933013e+001  0.000000e+000
      vertex  2.500000e+000  4.933013e+001  0.000000e+000
      vertex  5.000000e+000  5.000000e+001  0.000000e+000
    endloop
  endfacet
  facet normal  0.000000e+000  0.000000e+000 -1.000000e+000
    outer loop
      vertex  4.750000e+001  4.933013e+001  0.000000e+000
      vertex  5.000000e+000  5.000000e+001  0.000000e+000
      vertex  4.500000e+001  5.000000e+001  0.000000e+000
    endloop
  endfacet
  facet normal  0.000000e+000  0.000000e+000 -1.000000e+000
    outer loop
      vertex  6.698730e-001  4.750000e+001  0.000000e+000
      vertex  5.000000e+001  4.500000e+001  0.000000e+000
      vertex  0.000000e+000  4.500000e+001  0.000000e+000
    endloop
  endfacet
  facet normal  0.000000e+000  0.000000e+000 -1.000000e+000
    outer loop
      vertex  0.000000e+000  4.500000e+001  0.000000e+000
      vertex  5.000000e+001  4.500000e+001  0.000000e+000
      vertex  5.000000e+001  5.000000e+000  0.000000e+000
    endloop
  endfacet
  facet normal  0.000000e+000  0.000000e+000 -1.000000e+000
    outer loop
      vertex  0.000000e+000  4.500000e+001  0.000000e+000
      vertex  5.000000e+001  5.000000e+000  0.000000e+000
      vertex  0.000000e+000  5.000000e+000  0.000000e+000
    endloop
  endfacet
  facet normal  0.000000e+000  0.000000e+000 -1.000000e+000
    outer loop
      vertex  0.000000e+000  5.000000e+000  0.000000e+000
      vertex  5.000000e+001  5.000000e+000  0.000000e+000
      vertex  4.933013e+001  2.500000e+000  0.000000e+000
    endloop
  endfacet
  facet normal  0.000000e+000  0.000000e+000 -9.999999e-001
    outer loop
      vertex  0.000000e+000  5.000000e+000  0.000000e+000
      vertex  4.933013e+001  2.500000e+000  0.000000e+000
      vertex  6.698730e-001  2.500000e+000  0.000000e+000
    endloop
  endfacet
  facet normal  0.000000e+000  0.000000e+000 -1.000000e+000
    outer loop
      vertex  6.698730e-001  2.500000e+000  0.000000e+000
      vertex  4.933013e+001  2.500000e+000  0.000000e+000
      vertex  4.750000e+001  6.698730e-001  0.000000e+000
    endloop
  endfacet
  facet normal  0.000000e+000  0.000000e+000 -1.000000e+000
    outer loop
      vertex  6.698730e-001  2.500000e+000  0.000000e+000
      vertex  4.750000e+001  6.698730e-001  0.000000e+000
      vertex  2.500000e+000  6.698730e-001  0.000000e+000
    endloop
  endfacet
  facet normal  0.000000e+000  0.000000e+000 -1.000000e+000
    outer loop
      vertex  2.500000e+000  6.698730e-001  0.000000e+000
      vertex  4.750000e+001  6.698730e-001  0.000000e+000
      vertex  4.500000e+001  0.000000e+000  0.000000e+000
    endloop
  endfacet
  facet normal  0.000000e+000  0.000000e+000 -9.999999e-001
    outer loop
      vertex  2.500000e+000  6.698730e-001  0.000000e+000
      vertex  4.500000e+001  0.000000e+000  0.000000e+000
      vertex  5.000000e+000  0.000000e+000  0.000000e+000
    endloop
  endfacet
  facet normal  0.000000e+000 -1.000000e+000  0.000000e+000
    outer loop
      vertex  5.000000e+000  0.000000e+000  0.000000e+000
      vertex  4.500000e+001  0.000000e+000  0.000000e+000
      vertex  5.000000e+000  0.000000e+000  4.500000e+001
    endloop
  endfacet
  facet normal  0.000000e+000 -1.000000e+000  0.000000e+000
    outer loop
      vertex  5.000000e+000  0.000000e+000  4.500000e+001
      vertex  4.500000e+001  0.000000e+000  0.000000e+000
      vertex  4.500000e+001  0.000000e+000  4.500000e+001
    endloop
  endfacet
  facet normal  -0.000000e+000  9.659259e-001  2.588188e-001
    outer loop
      vertex  4.500000e+001  5.000000e+001  4.500000e+001
      vertex  5.000000e+000  5.000000e+001  4.500000e+001
      vertex  4.500000e+001  4.933013e+001  4.750000e+001
    endloop
  endfacet
  facet normal  0.000000e+000  9.659259e-001  2.588188e-001
    outer loop
      vertex  4.500000e+001  4.933013e+001  4.750000e+001
      vertex  5.000000e+000  5.000000e+001  4.500000e+001
      vertex  5.000000e+000  4.933013e+001  4.750000e+001
    endloop
  endfacet
  facet normal  -0.000000e+000  7.071068e-001  7.071068e-001
    outer loop
      vertex  4.500000e+001  4.933013e+001  4.750000e+001
      vertex  5.000000e+000  4.933013e+001  4.750000e+001
      vertex  4.500000e+001  4.750000e+001  4.933013e+001
    endloop
  endfacet
  facet normal  0.000000e+000  7.071068e-001  7.071068e-001
    outer loop
      vertex  4.500000e+001  4.750000e+001  4.933013e+001
      vertex  5.000000e+000  4.933013e+001  4.750000e+001
      vertex  5.000000e+000  4.750000e+001  4.933013e+001
    endloop
  endfacet
  facet normal  -0.000000e+000  2.588188e-001  9.659259e-001
    outer loop
      vertex  4.500000e+001  4.750000e+001  4.933013e+001
      vertex  5.000000e+000  4.750000e+001  4.933013e+001
      vertex  4.500000e+001  4.500000e+001  5.000000e+001
    endloop
  endfacet
  facet normal  0.000000e+000  2.588188e-001  9.659259e-001
    outer loop
      vertex  4.500000e+001  4.500000e+001  5.000000e+001
      vertex  5.000000e+000  4.750000e+001  4.933013e+001
      vertex  5.000000e+000  4.500000e+001  5.000000e+001
    endloop
  endfacet
  facet normal  1.000000e+000  0.000000e+000  0.000000e+000
    outer loop
      vertex  5.000000e+001  5.000000e+000  0.000000e+000
      vertex  5.000000e+001  4.500000e+001  0.000000e+000
      vertex  5.000000e+001  5.000000e+000  4.500000e+001
    endloop
  endfacet
  facet normal  1.000000e+000  -0.000000e+000  0.000000e+000
    outer loop
      vertex  5.000000e+001  5.000000e+000  4.500000e+001
      vertex  5.000000e+001  4.500000e+001  0.000000e+000
      vertex  5.000000e+001  4.500000e+001  4.500000e+001
    endloop
  endfacet
  facet normal  0.000000e+000  1.000000e+000  0.000000e+000
    outer loop
      vertex  4.500000e+001  5.000000e+001  0.000000e+000
      vertex  5.000000e+000  5.000000e+001  0.000000e+000
      vertex  4.500000e+001  5.000000e+001  4.500000e+001
    endloop
  endfacet
  facet normal  0.000000e+000  1.000000e+000  0.000000e+000
    outer loop
      vertex  4.500000e+001  5.000000e+001  4.500000e+001
      vertex  5.000000e+000  5.000000e+001  0.000000e+000
      vertex  5.000000e+000  5.000000e+001  4.500000e+001
    endloop
  endfacet
  facet normal  9.659259e-001 -2.588188e-001  0.000000e+000
    outer loop
      vertex  5.000000e+001  5.000000e+000  0.000000e+000
      vertex  5.000000e+001  5.000000e+000  4.500000e+001
      vertex  4.933013e+001  2.500000e+000  0.000000e+000
    endloop
  endfacet
  facet normal  9.659259e-001 -2.588188e-001  0.000000e+000
    outer loop
      vertex  4.933013e+001  2.500000e+000  0.000000e+000
      vertex  5.000000e+001  5.000000e+000  4.500000e+001
      vertex  4.933013e+001  2.500000e+000  4.500000e+001
    endloop
  endfacet
  facet normal  7.071066e-001 -7.071069e-001  0.000000e+000
    outer loop
      vertex  4.933013e+001  2.500000e+000  0.000000e+000
      vertex  4.933013e+001  2.500000e+000  4.500000e+001
      vertex  4.750000e+001  6.698730e-001  0.000000e+000
    endloop
  endfacet
  facet normal  7.071066e-001 -7.071069e-001  0.000000e+000
    outer loop
      vertex  4.750000e+001  6.698730e-001  0.000000e+000
      vertex  4.933013e+001  2.500000e+000  4.500000e+001
      vertex  4.750000e+001  6.698730e-001  4.500000e+001
    endloop
  endfacet
  facet normal  2.588190e-001 -9.659258e-001  0.000000e+000
    outer loop
      vertex  4.750000e+001  6.698730e-001  0.000000e+000
      vertex  4.750000e+001  6.698730e-001  4.500000e+001
      vertex  4.500000e+001  0.000000e+000  0.000000e+000
    endloop
  endfacet
  facet normal  2.588190e-001 -9.659258e-001  0.000000e+000
    outer loop
      vertex  4.500000e+001  0.000000e+000  0.000000e+000
      vertex  4.750000e+001  6.698730e-001  4.500000e+001
      vertex  4.500000e+001  0.000000e+000  4.500000e+001
    endloop
  endfacet
  facet normal -9.659258e-001  2.588190e-001  0.000000e+000
    outer loop
      vertex  0.000000e+000  4.500000e+001  0.000000e+000
      vertex  0.000000e+000  4.500000e+001  4.500000e+001
      vertex  6.698730e-001  4.750000e+001  0.000000e+000
    endloop
  endfacet
  facet normal -9.659258e-001  2.588190e-001  0.000000e+000
    outer loop
      vertex  6.698730e-001  4.750000e+001  0.000000e+000
      vertex  0.000000e+000  4.500000e+001  4.500000e+001
      vertex  6.698730e-001  4.750000e+001  4.500000e+001
    endloop
  endfacet
  facet normal -7.071069e-001  7.071066e-001  0.000000e+000
    outer loop
      vertex  6.698730e-001  4.750000e+001  0.000000e+000
      vertex  6.698730e-001  4.750000e+001  4.500000e+001
      vertex  2.500000e+000  4.933013e+001  0.000000e+000
    endloop
  endfacet
  facet normal -7.071069e-001  7.071066e-001  0.000000e+000
    outer loop
      vertex  2.500000e+000  4.933013e+001  0.000000e+000
      vertex  6.698730e-001  4.750000e+001  4.500000e+001
      vertex  2.500000e+000  4.933013e+001  4.500000e+001
    endloop
  endfacet
  facet normal -2.588188e-001  9.659259e-001  0.000000e+000
    outer loop
      vertex  2.500000e+000  4.933013e+001  0.000000e+000
      vertex  2.500000e+000  4.933013e+001  4.500000e+001
      vertex  5.000000e+000  5.000000e+001  0.000000e+000
    endloop
  endfacet
  facet normal -2.588188e-001  9.659259e-001  0.000000e+000
    outer loop
      vertex  5.000000e+000  5.000000e+001  0.000000e+000
      vertex  2.500000e+000  4.933013e+001  4.500000e+001
      vertex  5.000000e+000  5.000000e+001  4.500000e+001
    endloop
  endfacet
  facet normal  2.588188e-001  9.659259e-001  0.000000e+000
    outer loop
      vertex  4.500000e+001  5.000000e+001  0.000000e+000
      vertex  4.500000e+001  5.000000e+001  4.500000e+001
      vertex  4.750000e+001  4.933013e+001  0.000000e+000
    endloop
  endfacet
  facet normal  2.588188e-001  9.659259e-001  -0.000000e+000
    outer loop
      vertex  4.750000e+001  4.933013e+001  0.000000e+000
      vertex  4.500000e+001  5.000000e+001  4.500000e+001
      vertex  4.750000e+001  4.933013e+001  4.500000e+001
    endloop
  endfacet
  facet normal  7.071068e-001  7.071068e-001  0.000000e+000
    outer loop
      vertex  4.750000e+001  4.933013e+001  0.000000e+000
      vertex  4.750000e+001  4.933013e+001  4.500000e+001
      vertex  4.933013e+001  4.750000e+001  0.000000e+000
    endloop
  endfacet
  facet normal  7.071068e-001  7.071068e-001  -0.000000e+000
    outer loop
      vertex  4.933013e+001  4.750000e+001  0.000000e+000
      vertex  4.750000e+001  4.933013e+001  4.500000e+001
      vertex  4.933013e+001  4.750000e+001  4.500000e+001
    endloop
  endfacet
  facet normal  9.659259e-001  2.588188e-001  0.000000e+000
    outer loop
      vertex  4.933013e+001  4.750000e+001  0.000000e+000
      vertex  4.933013e+001  4.750000e+001  4.500000e+001
      vertex  5.000000e+001  4.500000e+001  0.000000e+000
    endloop
  endfacet
  facet normal  9.659259e-001  2.588188e-001  -0.000000e+000
    outer loop
      vertex  5.000000e+001  4.500000e+001  0.000000e+000
      vertex  4.933013e+001  4.750000e+001  4.500000e+001
      vertex  5.000000e+001  4.500000e+001  4.500000e+001
    endloop
  endfacet
  facet normal  9.636114e-001  2.581986e-001  6.918443e-002
    outer loop
      vertex  5.000000e+001  4.500000e+001  4.500000e+001
      vertex  4.933013e+001  4.750000e+001  4.500000e+001
      vertex  4.933013e+001  4.716506e+001  4.625000e+001
    endloop
  endfacet
  facet normal  9.636113e-001  1.890146e-001  1.890146e-001
    outer loop
      vertex  5.000000e+001  4.500000e+001  4.500000e+001
      vertex  4.933013e+001  4.716506e+001  4.625000e+001
      vertex  4.933013e+001  4.625000e+001  4.716506e+001
    endloop
  endfacet
  facet normal  9.636114e-001  6.918443e-002  2.581986e-001
    outer loop
      vertex  5.000000e+001  4.500000e+001  4.500000e+001
      vertex  4.933013e+001  4.625000e+001  4.716506e+001
      vertex  4.933013e+001  4.500000e+001  4.750000e+001
    endloop
  endfacet
  facet normal  6.947465e-001  1.861576e-001  6.947465e-001
    outer loop
      vertex  4.933013e+001  4.500000e+001  4.750000e+001
      vertex  4.933013e+001  4.625000e+001  4.716506e+001
      vertex  4.750000e+001  4.500000e+001  4.933013e+001
    endloop
  endfacet
  facet normal  6.947467e-001  1.861571e-001  6.947464e-001
    outer loop
      vertex  4.750000e+001  4.500000e+001  4.933013e+001
      vertex  4.933013e+001  4.625000e+001  4.716506e+001
      vertex  4.750000e+001  4.716506e+001  4.875000e+001
    endloop
  endfacet
  facet normal  2.505625e-001  2.505633e-001  9.351131e-001
    outer loop
      vertex  4.750000e+001  4.500000e+001  4.933013e+001
      vertex  4.750000e+001  4.716506e+001  4.875000e+001
      vertex  4.500000e+001  4.500000e+001  5.000000e+001
    endloop
  endfacet
  facet normal  2.505632e-001  2.505625e-001  9.351131e-001
    outer loop
      vertex  4.500000e+001  4.500000e+001  5.000000e+001
      vertex  4.750000e+001  4.716506e+001  4.875000e+001
      vertex  4.500000e+001  4.750000e+001  4.933013e+001
    endloop
  endfacet
  facet normal  6.947468e-001  6.947462e-001  1.861576e-001
    outer loop
      vertex  4.933013e+001  4.716506e+001  4.625000e+001
      vertex  4.933013e+001  4.750000e+001  4.500000e+001
      vertex  4.750000e+001  4.875000e+001  4.716506e+001
    endloop
  endfacet
  facet normal  6.947466e-001  6.947466e-001  1.861572e-001
    outer loop
      vertex  4.750000e+001  4.875000e+001  4.716506e+001
      vertex  4.933013e+001  4.750000e+001  4.500000e+001
      vertex  4.750000e+001  4.933013e+001  4.500000e+001
    endloop
  endfacet
  facet normal  2.505632e-001  9.351129e-001  2.505632e-001
    outer loop
      vertex  4.750000e+001  4.875000e+001  4.716506e+001
      vertex  4.750000e+001  4.933013e+001  4.500000e+001
      vertex  4.500000e+001  4.933013e+001  4.750000e+001
    endloop
  endfacet
  facet normal  2.505626e-001  9.351133e-001  2.505626e-001
    outer loop
      vertex  4.500000e+001  4.933013e+001  4.750000e+001
      vertex  4.750000e+001  4.933013e+001  4.500000e+001
      vertex  4.500000e+001  5.000000e+001  4.500000e+001
    endloop
  endfacet
  facet normal  6.947464e-001  5.085899e-001  5.085899e-001
    outer loop
      vertex  4.933013e+001  4.625000e+001  4.716506e+001
      vertex  4.933013e+001  4.716506e+001  4.625000e+001
      vertex  4.750000e+001  4.716506e+001  4.875000e+001
    endloop
  endfacet
  facet normal  6.947465e-001  5.085899e-001  5.085899e-001
    outer loop
      vertex  4.750000e+001  4.716506e+001  4.875000e+001
      vertex  4.933013e+001  4.716506e+001  4.625000e+001
      vertex  4.750000e+001  4.875000e+001  4.716506e+001
    endloop
  endfacet
  facet normal  2.505634e-001  6.845502e-001  6.845502e-001
    outer loop
      vertex  4.750000e+001  4.716506e+001  4.875000e+001
      vertex  4.750000e+001  4.875000e+001  4.716506e+001
      vertex  4.500000e+001  4.750000e+001  4.933013e+001
    endloop
  endfacet
  facet normal  2.505634e-001  6.845503e-001  6.845503e-001
    outer loop
      vertex  4.500000e+001  4.750000e+001  4.933013e+001
      vertex  4.750000e+001  4.875000e+001  4.716506e+001
      vertex  4.500000e+001  4.933013e+001  4.750000e+001
    endloop
  endfacet
  facet normal  9.659259e-001  0.000000e+000  2.588188e-001
    outer loop
      vertex  5.000000e+001  5.000000e+000  4.500000e+001
      vertex  5.000000e+001  4.500000e+001  4.500000e+001
      vertex  4.933013e+001  5.000000e+000  4.750000e+001
    endloop
  endfacet
  facet normal  9.659259e-001  -0.000000e+000  2.588188e-001
    outer loop
      vertex  4.933013e+001  5.000000e+000  4.750000e+001
      vertex  5.000000e+001  4.500000e+001  4.500000e+001
      vertex  4.933013e+001  4.500000e+001  4.750000e+001
    endloop
  endfacet
  facet normal  7.071068e-001  0.000000e+000  7.071068e-001
    outer loop
      vertex  4.933013e+001  5.000000e+000  4.750000e+001
      vertex  4.933013e+001  4.500000e+001  4.750000e+001
      vertex  4.750000e+001  5.000000e+000  4.933013e+001
    endloop
  endfacet
  facet normal  7.071068e-001  -0.000000e+000  7.071068e-001
    outer loop
      vertex  4.750000e+001  5.000000e+000  4.933013e+001
      vertex  4.933013e+001  4.500000e+001  4.750000e+001
      vertex  4.750000e+001  4.500000e+001  4.933013e+001
    endloop
  endfacet
  facet normal  2.588188e-001  0.000000e+000  9.659259e-001
    outer loop
      vertex  4.750000e+001  5.000000e+000  4.933013e+001
      vertex  4.750000e+001  4.500000e+001  4.933013e+001
      vertex  4.500000e+001  5.000000e+000  5.000000e+001
    endloop
  endfacet
  facet normal  2.588188e-001  -0.000000e+000  9.659259e-001
    outer loop
      vertex  4.500000e+001  5.000000e+000  5.000000e+001
      vertex  4.750000e+001  4.500000e+001  4.933013e+001
      vertex  4.500000e+001  4.500000e+001  5.000000e+001
    endloop
  endfacet
  facet normal  6.918409e-002 -2.581986e-001  9.636114e-001
    outer loop
      vertex  4.500000e+001  5.000000e+000  5.000000e+001
      vertex  4.500000e+001  2.500000e+000  4.933013e+001
      vertex  4.625000e+001  2.834936e+000  4.933013e+001
    endloop
  endfacet
  facet normal  1.890147e-001 -1.890144e-001  9.636114e-001
    outer loop
      vertex  4.500000e+001  5.000000e+000  5.000000e+001
      vertex  4.625000e+001  2.834936e+000  4.933013e+001
      vertex  4.716506e+001  3.750000e+000  4.933013e+001
    endloop
  endfacet
  facet normal  2.581986e-001 -6.918443e-002  9.636114e-001
    outer loop
      vertex  4.500000e+001  5.000000e+000  5.000000e+001
      vertex  4.716506e+001  3.750000e+000  4.933013e+001
      vertex  4.750000e+001  5.000000e+000  4.933013e+001
    endloop
  endfacet
  facet normal  6.947465e-001 -1.861576e-001  6.947465e-001
    outer loop
      vertex  4.750000e+001  5.000000e+000  4.933013e+001
      vertex  4.716506e+001  3.750000e+000  4.933013e+001
      vertex  4.933013e+001  5.000000e+000  4.750000e+001
    endloop
  endfacet
  facet normal  6.947463e-001 -1.861569e-001  6.947467e-001
    outer loop
      vertex  4.933013e+001  5.000000e+000  4.750000e+001
      vertex  4.716506e+001  3.750000e+000  4.933013e+001
      vertex  4.875000e+001  2.834936e+000  4.750000e+001
    endloop
  endfacet
  facet normal  9.351131e-001 -2.505631e-001  2.505625e-001
    outer loop
      vertex  4.933013e+001  5.000000e+000  4.750000e+001
      vertex  4.875000e+001  2.834936e+000  4.750000e+001
      vertex  5.000000e+001  5.000000e+000  4.500000e+001
    endloop
  endfacet
  facet normal  9.351131e-001 -2.505625e-001  2.505630e-001
    outer loop
      vertex  5.000000e+001  5.000000e+000  4.500000e+001
      vertex  4.875000e+001  2.834936e+000  4.750000e+001
      vertex  4.933013e+001  2.500000e+000  4.500000e+001
    endloop
  endfacet
  facet normal  1.861568e-001 -6.947469e-001  6.947464e-001
    outer loop
      vertex  4.625000e+001  2.834936e+000  4.933013e+001
      vertex  4.500000e+001  2.500000e+000  4.933013e+001
      vertex  4.716506e+001  1.250000e+000  4.750000e+001
    endloop
  endfacet
  facet normal  1.861569e-001 -6.947467e-001  6.947464e-001
    outer loop
      vertex  4.716506e+001  1.250000e+000  4.750000e+001
      vertex  4.500000e+001  2.500000e+000  4.933013e+001
      vertex  4.500000e+001  6.698730e-001  4.750000e+001
    endloop
  endfacet
  facet normal  2.505630e-001 -9.351131e-001  2.505630e-001
    outer loop
      vertex  4.716506e+001  1.250000e+000  4.750000e+001
      vertex  4.500000e+001  6.698730e-001  4.750000e+001
      vertex  4.750000e+001  6.698730e-001  4.500000e+001
    endloop
  endfacet
  facet normal  2.505628e-001 -9.351131e-001  2.505628e-001
    outer loop
      vertex  4.750000e+001  6.698730e-001  4.500000e+001
      vertex  4.500000e+001  6.698730e-001  4.750000e+001
      vertex  4.500000e+001  0.000000e+000  4.500000e+001
    endloop
  endfacet
  facet normal  5.085901e-001 -5.085891e-001  6.947467e-001
    outer loop
      vertex  4.716506e+001  3.750000e+000  4.933013e+001
      vertex  4.625000e+001  2.834936e+000  4.933013e+001
      vertex  4.875000e+001  2.834936e+000  4.750000e+001
    endloop
  endfacet
  facet normal  5.085897e-001 -5.085903e-001  6.947462e-001
    outer loop
      vertex  4.875000e+001  2.834936e+000  4.750000e+001
      vertex  4.625000e+001  2.834936e+000  4.933013e+001
      vertex  4.716506e+001  1.250000e+000  4.750000e+001
    endloop
  endfacet
  facet normal  6.845499e-001 -6.845506e-001  2.505629e-001
    outer loop
      vertex  4.875000e+001  2.834936e+000  4.750000e+001
      vertex  4.716506e+001  1.250000e+000  4.750000e+001
      vertex  4.933013e+001  2.500000e+000  4.500000e+001
    endloop
  endfacet
  facet normal  6.845501e-001 -6.845504e-001  2.505632e-001
    outer loop
      vertex  4.933013e+001  2.500000e+000  4.500000e+001
      vertex  4.716506e+001  1.250000e+000  4.750000e+001
      vertex  4.750000e+001  6.698730e-001  4.500000e+001
    endloop
  endfacet
  facet normal  0.000000e+000 -9.659259e-001  2.588191e-001
    outer loop
      vertex  5.000000e+000  0.000000e+000  4.500000e+001
      vertex  4.500000e+001  0.000000e+000  4.500000e+001
      vertex  5.000000e+000  6.698730e-001  4.750000e+001
    endloop
  endfacet
  facet normal  0.000000e+000 -9.659259e-001  2.588191e-001
    outer loop
      vertex  5.000000e+000  6.698730e-001  4.750000e+001
      vertex  4.500000e+001  0.000000e+000  4.500000e+001
      vertex  4.500000e+001  6.698730e-001  4.750000e+001
    endloop
  endfacet
  facet normal  0.000000e+000 -7.071069e-001  7.071066e-001
    outer loop
      vertex  5.000000e+000  6.698730e-001  4.750000e+001
      vertex  4.500000e+001  6.698730e-001  4.750000e+001
      vertex  5.000000e+000  2.500000e+000  4.933013e+001
    endloop
  endfacet
  facet normal  0.000000e+000 -7.071069e-001  7.071066e-001
    outer loop
      vertex  5.000000e+000  2.500000e+000  4.933013e+001
      vertex  4.500000e+001  6.698730e-001  4.750000e+001
      vertex  4.500000e+001  2.500000e+000  4.933013e+001
    endloop
  endfacet
  facet normal  0.000000e+000 -2.588188e-001  9.659259e-001
    outer loop
      vertex  5.000000e+000  2.500000e+000  4.933013e+001
      vertex  4.500000e+001  2.500000e+000  4.933013e+001
      vertex  5.000000e+000  5.000000e+000  5.000000e+001
    endloop
  endfacet
  facet normal  0.000000e+000 -2.588188e-001  9.659259e-001
    outer loop
      vertex  5.000000e+000  5.000000e+000  5.000000e+001
      vertex  4.500000e+001  2.500000e+000  4.933013e+001
      vertex  4.500000e+001  5.000000e+000  5.000000e+001
    endloop
  endfacet
  facet normal -2.581986e-001 -6.918409e-002  9.636114e-001
    outer loop
      vertex  5.000000e+000  5.000000e+000  5.000000e+001
      vertex  2.500000e+000  5.000000e+000  4.933013e+001
      vertex  2.834936e+000  3.750000e+000  4.933013e+001
    endloop
  endfacet
  facet normal -1.890145e-001 -1.890145e-001  9.636115e-001
    outer loop
      vertex  5.000000e+000  5.000000e+000  5.000000e+001
      vertex  2.834936e+000  3.750000e+000  4.933013e+001
      vertex  3.750000e+000  2.834936e+000  4.933013e+001
    endloop
  endfacet
  facet normal -6.918409e-002 -2.581986e-001  9.636114e-001
    outer loop
      vertex  5.000000e+000  5.000000e+000  5.000000e+001
      vertex  3.750000e+000  2.834936e+000  4.933013e+001
      vertex  5.000000e+000  2.500000e+000  4.933013e+001
    endloop
  endfacet
  facet normal -1.861568e-001 -6.947467e-001  6.947464e-001
    outer loop
      vertex  5.000000e+000  2.500000e+000  4.933013e+001
      vertex  3.750000e+000  2.834936e+000  4.933013e+001
      vertex  5.000000e+000  6.698730e-001  4.750000e+001
    endloop
  endfacet
  facet normal -1.861568e-001 -6.947467e-001  6.947464e-001
    outer loop
      vertex  5.000000e+000  6.698730e-001  4.750000e+001
      vertex  3.750000e+000  2.834936e+000  4.933013e+001
      vertex  2.834936e+000  1.250000e+000  4.750000e+001
    endloop
  endfacet
  facet normal -2.505628e-001 -9.351131e-001  2.505628e-001
    outer loop
      vertex  5.000000e+000  6.698730e-001  4.750000e+001
      vertex  2.834936e+000  1.250000e+000  4.750000e+001
      vertex  5.000000e+000  0.000000e+000  4.500000e+001
    endloop
  endfacet
  facet normal -2.505628e-001 -9.351131e-001  2.505628e-001
    outer loop
      vertex  5.000000e+000  0.000000e+000  4.500000e+001
      vertex  2.834936e+000  1.250000e+000  4.750000e+001
      vertex  2.500000e+000  6.698730e-001  4.500000e+001
    endloop
  endfacet
  facet normal -6.947467e-001 -1.861568e-001  6.947464e-001
    outer loop
      vertex  2.834936e+000  3.750000e+000  4.933013e+001
      vertex  2.500000e+000  5.000000e+000  4.933013e+001
      vertex  1.250000e+000  2.834936e+000  4.750000e+001
    endloop
  endfacet
  facet normal -6.947467e-001 -1.861568e-001  6.947464e-001
    outer loop
      vertex  1.250000e+000  2.834936e+000  4.750000e+001
      vertex  2.500000e+000  5.000000e+000  4.933013e+001
      vertex  6.698730e-001  5.000000e+000  4.750000e+001
    endloop
  endfacet
  facet normal -9.351131e-001 -2.505628e-001  2.505628e-001
    outer loop
      vertex  1.250000e+000  2.834936e+000  4.750000e+001
      vertex  6.698730e-001  5.000000e+000  4.750000e+001
      vertex  6.698730e-001  2.500000e+000  4.500000e+001
    endloop
  endfacet
  facet normal -9.351131e-001 -2.505628e-001  2.505628e-001
    outer loop
      vertex  6.698730e-001  2.500000e+000  4.500000e+001
      vertex  6.698730e-001  5.000000e+000  4.750000e+001
      vertex  0.000000e+000  5.000000e+000  4.500000e+001
    endloop
  endfacet
  facet normal -5.085899e-001 -5.085899e-001  6.947465e-001
    outer loop
      vertex  3.750000e+000  2.834936e+000  4.933013e+001
      vertex  2.834936e+000  3.750000e+000  4.933013e+001
      vertex  2.834936e+000  1.250000e+000  4.750000e+001
    endloop
  endfacet
  facet normal -5.085899e-001 -5.085899e-001  6.947464e-001
    outer loop
      vertex  2.834936e+000  1.250000e+000  4.750000e+001
      vertex  2.834936e+000  3.750000e+000  4.933013e+001
      vertex  1.250000e+000  2.834936e+000  4.750000e+001
    endloop
  endfacet
  facet normal -6.845503e-001 -6.845503e-001  2.505628e-001
    outer loop
      vertex  2.834936e+000  1.250000e+000  4.750000e+001
      vertex  1.250000e+000  2.834936e+000  4.750000e+001
      vertex  2.500000e+000  6.698730e-001  4.500000e+001
    endloop
  endfacet
  facet normal -6.845503e-001 -6.845503e-001  2.505628e-001
    outer loop
      vertex  2.500000e+000  6.698730e-001  4.500000e+001
      vertex  1.250000e+000  2.834936e+000  4.750000e+001
      vertex  6.698730e-001  2.500000e+000  4.500000e+001
    endloop
  endfacet
  facet normal -9.659259e-001  0.000000e+000  2.588191e-001
    outer loop
      vertex  0.000000e+000  4.500000e+001  4.500000e+001
      vertex  0.000000e+000  5.000000e+000  4.500000e+001
      vertex  6.698730e-001  4.500000e+001  4.750000e+001
    endloop
  endfacet
  facet normal -9.659259e-001  0.000000e+000  2.588191e-001
    outer loop
      vertex  6.698730e-001  4.500000e+001  4.750000e+001
      vertex  0.000000e+000  5.000000e+000  4.500000e+001
      vertex  6.698730e-001  5.000000e+000  4.750000e+001
    endloop
  endfacet
  facet normal -7.071069e-001  0.000000e+000  7.071066e-001
    outer loop
      vertex  6.698730e-001  4.500000e+001  4.750000e+001
      vertex  6.698730e-001  5.000000e+000  4.750000e+001
      vertex  2.500000e+000  4.500000e+001  4.933013e+001
    endloop
  endfacet
  facet normal -7.071069e-001  0.000000e+000  7.071066e-001
    outer loop
      vertex  2.500000e+000  4.500000e+001  4.933013e+001
      vertex  6.698730e-001  5.000000e+000  4.750000e+001
      vertex  2.500000e+000  5.000000e+000  4.933013e+001
    endloop
  endfacet
  facet normal -2.588188e-001  0.000000e+000  9.659259e-001
    outer loop
      vertex  2.500000e+000  4.500000e+001  4.933013e+001
      vertex  2.500000e+000  5.000000e+000  4.933013e+001
      vertex  5.000000e+000  4.500000e+001  5.000000e+001
    endloop
  endfacet
  facet normal -2.588188e-001  0.000000e+000  9.659259e-001
    outer loop
      vertex  5.000000e+000  4.500000e+001  5.000000e+001
      vertex  2.500000e+000  5.000000e+000  4.933013e+001
      vertex  5.000000e+000  5.000000e+000  5.000000e+001
    endloop
  endfacet
  facet normal -9.636114e-001  6.918450e-002  2.581989e-001
    outer loop
      vertex  0.000000e+000  4.500000e+001  4.500000e+001
      vertex  6.698730e-001  4.500000e+001  4.750000e+001
      vertex  6.698730e-001  4.625000e+001  4.716506e+001
    endloop
  endfacet
  facet normal -9.636113e-001  1.890148e-001  1.890148e-001
    outer loop
      vertex  0.000000e+000  4.500000e+001  4.500000e+001
      vertex  6.698730e-001  4.625000e+001  4.716506e+001
      vertex  6.698730e-001  4.716506e+001  4.625000e+001
    endloop
  endfacet
  facet normal -9.636114e-001  2.581989e-001  6.918450e-002
    outer loop
      vertex  0.000000e+000  4.500000e+001  4.500000e+001
      vertex  6.698730e-001  4.716506e+001  4.625000e+001
      vertex  6.698730e-001  4.750000e+001  4.500000e+001
    endloop
  endfacet
  facet normal -6.947466e-001  6.947463e-001  1.861576e-001
    outer loop
      vertex  6.698730e-001  4.750000e+001  4.500000e+001
      vertex  6.698730e-001  4.716506e+001  4.625000e+001
      vertex  2.500000e+000  4.933013e+001  4.500000e+001
    endloop
  endfacet
  facet normal -6.947469e-001  6.947463e-001  1.861570e-001
    outer loop
      vertex  2.500000e+000  4.933013e+001  4.500000e+001
      vertex  6.698730e-001  4.716506e+001  4.625000e+001
      vertex  2.500000e+000  4.875000e+001  4.716506e+001
    endloop
  endfacet
  facet normal -2.505625e-001  9.351131e-001  2.505633e-001
    outer loop
      vertex  2.500000e+000  4.933013e+001  4.500000e+001
      vertex  2.500000e+000  4.875000e+001  4.716506e+001
      vertex  5.000000e+000  5.000000e+001  4.500000e+001
    endloop
  endfacet
  facet normal -2.505632e-001  9.351131e-001  2.505625e-001
    outer loop
      vertex  5.000000e+000  5.000000e+001  4.500000e+001
      vertex  2.500000e+000  4.875000e+001  4.716506e+001
      vertex  5.000000e+000  4.933013e+001  4.750000e+001
    endloop
  endfacet
  facet normal -6.947469e-001  1.861575e-001  6.947461e-001
    outer loop
      vertex  6.698730e-001  4.625000e+001  4.716506e+001
      vertex  6.698730e-001  4.500000e+001  4.750000e+001
      vertex  2.500000e+000  4.716506e+001  4.875000e+001
    endloop
  endfacet
  facet normal -6.947467e-001  1.861571e-001  6.947464e-001
    outer loop
      vertex  2.500000e+000  4.716506e+001  4.875000e+001
      vertex  6.698730e-001  4.500000e+001  4.750000e+001
      vertex  2.500000e+000  4.500000e+001  4.933013e+001
    endloop
  endfacet
  facet normal -2.505632e-001  2.505632e-001  9.351129e-001
    outer loop
      vertex  2.500000e+000  4.716506e+001  4.875000e+001
      vertex  2.500000e+000  4.500000e+001  4.933013e+001
      vertex  5.000000e+000  4.750000e+001  4.933013e+001
    endloop
  endfacet
  facet normal -2.505626e-001  2.505626e-001  9.351133e-001
    outer loop
      vertex  5.000000e+000  4.750000e+001  4.933013e+001
      vertex  2.500000e+000  4.500000e+001  4.933013e+001
      vertex  5.000000e+000  4.500000e+001  5.000000e+001
    endloop
  endfacet
  facet normal -6.947466e-001  5.085898e-001  5.085898e-001
    outer loop
      vertex  6.698730e-001  4.716506e+001  4.625000e+001
      vertex  6.698730e-001  4.625000e+001  4.716506e+001
      vertex  2.500000e+000  4.875000e+001  4.716506e+001
    endloop
  endfacet
  facet normal -6.947466e-001  5.085897e-001  5.085897e-001
    outer loop
      vertex  2.500000e+000  4.875000e+001  4.716506e+001
      vertex  6.698730e-001  4.625000e+001  4.716506e+001
      vertex  2.500000e+000  4.716506e+001  4.875000e+001
    endloop
  endfacet
  facet normal -2.505634e-001  6.845502e-001  6.845502e-001
    outer loop
      vertex  2.500000e+000  4.875000e+001  4.716506e+001
      vertex  2.500000e+000  4.716506e+001  4.875000e+001
      vertex  5.000000e+000  4.933013e+001  4.750000e+001
    endloop
  endfacet
  facet normal -2.505634e-001  6.845503e-001  6.845503e-001
    outer loop
      vertex  5.000000e+000  4.933013e+001  4.750000e+001
      vertex  2.500000e+000  4.716506e+001  4.875000e+001
      vertex  5.000000e+000  4.750000e+001  4.933013e+001
    endloop
  endfacet
  facet normal -2.588190e-001 -9.659258e-001  -0.000000e+000
    outer loop
      vertex  5.000000e+000  0.000000e+000  0.000000e+000
      vertex  5.000000e+000  0.000000e+000  4.500000e+001
      vertex  2.500000e+000  6.698730e-001  0.000000e+000
    endloop
  endfacet
  facet normal -2.588190e-001 -9.659258e-001  0.000000e+000
    outer loop
      vertex  2.500000e+000  6.698730e-001  0.000000e+000
      vertex  5.000000e+000  0.000000e+000  4.500000e+001
      vertex  2.500000e+000  6.698730e-001  4.500000e+001
    endloop
  endfacet
  facet normal -7.071068e-001 -7.071068e-001  -0.000000e+000
    outer loop
      vertex  2.500000e+000  6.698730e-001  0.000000e+000
      vertex  2.500000e+000  6.698730e-001  4.500000e+001
      vertex  6.698730e-001  2.500000e+000  0.000000e+000
    endloop
  endfacet
  facet normal -7.071068e-001 -7.071068e-001  0.000000e+000
    outer loop
      vertex  6.698730e-001  2.500000e+000  0.000000e+000
      vertex  2.500000e+000  6.698730e-001  4.500000e+001
      vertex  6.698730e-001  2.500000e+000  4.500000e+001
    endloop
  endfacet
  facet normal -9.659258e-001 -2.588190e-001  -0.000000e+000
    outer loop
      vertex  6.698730e-001  2.500000e+000  0.000000e+000
      vertex  6.698730e-001  2.500000e+000  4.500000e+001
      vertex  0.000000e+000  5.000000e+000  0.000000e+000
    endloop
  endfacet
  facet normal -9.659258e-001 -2.588190e-001  0.000000e+000
    outer loop
      vertex  0.000000e+000  5.000000e+000  0.000000e+000
      vertex  6.698730e-001  2.500000e+000  4.500000e+001
      vertex  0.000000e+000  5.000000e+000  4.500000e+001
    endloop
  endfacet
  facet normal  0.000000e+000  0.000000e+000  1.000000e+000
    outer loop
      vertex  5.000000e+000  5.000000e+000  5.000000e+001
      vertex  4.500000e+001  5.000000e+000  5.000000e+001
      vertex  5.000000e+000  4.500000e+001  5.000000e+001
    endloop
  endfacet
  facet normal  -0.000000e+000  0.000000e+000  1.000000e+000
    outer loop
      vertex  5.000000e+000  4.500000e+001  5.000000e+001
      vertex  4.500000e+001  5.000000e+000  5.000000e+001
      vertex  4.500000e+001  4.500000e+001  5.000000e+001
    endloop
  endfacet
  facet normal -1.000000e+000  0.000000e+000  0.000000e+000
    outer loop
      vertex  0.000000e+000  4.500000e+001  0.000000e+000
      vertex  0.000000e+000  5.000000e+000  0.000000e+000
      vertex  0.000000e+000  4.500000e+001  4.500000e+001
    endloop
  endfacet
  facet normal -1.000000e+000  -0.000000e+000  0.000000e+000
    outer loop
      vertex  0.000000e+000  4.500000e+001  4.500000e+001
      vertex  0.000000e+000  5.000000e+000  0.000000e+000
      vertex  0.000000e+000  5.000000e+000  4.500000e+001
    endloop
  endfacet
  facet normal  0.000000e+000  0.000000e+000 -9.999999e-001
    outer loop
      vertex  5.000000e+001  4.500000e+001  0.000000e+000
      vertex  6.698730e-001  4.750000e+001  0.000000e+000
      vertex  4.933013e+001  4.750000e+001  0.000000e+000
    endloop
  endfacet
  facet normal  0.000000e+000  0.000000e+000 -1.000000e+000
    outer loop
      vertex  4.933013e+001  4.750000e+001  0.000000e+000
      vertex  6.698730e-001  4.750000e+001  0.000000e+000
      vertex  2.500000e+000  4.933013e+001  0.000000e+000
    endloop
  endfacet
  facet normal  0.000000e+000  0.000000e+000 -1.000000e+000
    outer loop
      vertex  4.933013e+001  4.750000e+001  0.000000e+000
      vertex  2.500000e+000  4.933013e+001  0.000000e+000
      vertex  4.750000e+001  4.933013e+001  0.000000e+000
    endloop
  endfacet
  facet normal  0.000000e+000  0.000000e+000 -9.999999e-001
    outer loop
      vertex  4.750000e+001  4.933013e+001  0.000000e+000
      vertex  2.500000e+000  4.933013e+001  0.000000e+000
      vertex  5.000000e+000  5.000000e+001  0.000000e+000
    endloop
  endfacet
  facet normal  0.000000e+000  0.000000e+000 -1.000000e+000
    outer loop
      vertex  4.750000e+001  4.933013e+001  0.000000e+000
      vertex  5.000000e+000  5.000000e+001  0.000000e+000
      vertex  4.500000e+001  5.000000e+001  0.000000e+000
    endloop
  endfacet
  facet normal  0.000000e+000  0.000000e+000 -1.000000e+000
    outer loop
      vertex  6.698730e-001  4.750000e+001  0.000000e+000
      vertex  5.000000e+001  4.500000e+001  0.000000e+000
      vertex  0.000000e+000  4.500000e+001  0.000000e+000
    endloop
  endfacet
  facet normal  0.000000e+000  0.000000e+000 -1.000000e+000
    outer loop
      vertex  0.000000e+000  4.500000e+001  0.000000e+000
      vertex  5.000000e+001  4.500000e+001  0.000000e+000
      vertex  5.000000e+001  5.000000e+000  0.000000e+000
    endloop
  endfacet
  facet normal  0.000000e+000  0.000000e+000 -1.000000e+000
    outer loop
      vertex  0.000000e+000  4.500000e+001  0.000000e+000
      vertex  5.000000e+001  5.000000e+000  0.000000e+000
      vertex  0.000000e+000  5.000000e+000  0.000000e+000
    endloop
  endfacet
  facet normal  0.000000e+000  0.000000e+000 -1.000000e+000
    outer loop
      vertex  0.000000e+000  5.000000e+000  0.000000e+000
      vertex  5.000000e+001  5.000000e+000  0.000000e+000
      vertex  4.933013e+001  2.500000e+000  0.000000e+000
    endloop
  endfacet
  facet normal  0.000000e+000  0.000000e+000 -9.999999e-001
    outer loop
      vertex  0.000000e+000  5.000000e+000  0.000000e+000
      vertex  4.933013e+001  2.500000e+000  0.000000e+000
      vertex  6.698730e-001  2.500000e+000  0.000000e+000
    endloop
  endfacet
  facet normal  0.000000e+000  0.000000e+000 -1.000000e+000
    outer loop
      vertex  6.698730e-001  2.500000e+000  0.000000e+000
      vertex  4.933013e+001  2.500000e+000  0.000000e+000
      vertex  4.750000e+001  6.698730e-001  0.000000e+000
    endloop
  endfacet
  facet normal  0.000000e+000  0.000000e+000 -1.000000e+000
    outer loop
      vertex  6.698730e-001  2.500000e+000  0.000000e+000
      vertex  4.750000e+001  6.698730e-001  0.000000e+000
      vertex  2.500000e+000  6.698730e-001  0.000000e+000
    endloop
  endfacet
  facet normal  0.000000e+000  0.000000e+000 -1.000000e+000
    outer loop
      vertex  2.500000e+000  6.698730e-001  0.000000e+000
      vertex  4.750000e+001  6.698730e-001  0.000000e+000
      vertex  4.500000e+001  0.000000e+000  0.000000e+000
    endloop
  endfacet
  facet normal  0.000000e+000  0.000000e+000 -9.999999e-001
    outer loop
      vertex  2.500000e+000  6.698730e-001  0.000000e+000
      vertex  4.500000e+001  0.000000e+000  0.000000e+000
      vertex  5.000000e+000  0.000000e+000  0.000000e+000
    endloop
  endfacet
  facet normal  0.000000e+000 -1.000000e+000  0.000000e+000
    outer loop
      vertex  5.000000e+000  0.000000e+000  0.000000e+000
      vertex  4.500000e+001  0.000000e+000  0.000000e+000
      vertex  5.000000e+000  0.000000e+000  4.500000e+001
    endloop
  endfacet
  facet normal  0.000000e+000 -1.000000e+000  0.000000e+000
    outer loop
      vertex  5.000000e+000  0.000000e+000  4.500000e+001
      vertex  4.500000e+001  0.000000e+000  0.000000e+000
      vertex  4.500000e+001  0.000000e+000  4.500000e+001
    endloop
  endfacet
  facet normal  -0.000000e+000  9.659259e-001  2.588188e-001
    outer loop
      vertex  4.500000e+001  5.000000e+001  4.500000e+001
      vertex  5.000000e+000  5.000000e+001  4.500000e+001
      vertex  4.500000e+001  4.933013e+001  4.750000e+001
    endloop
  endfacet
  facet normal  0.000000e+000  9.659259e-001  2.588188e-001
    outer loop
      vertex  4.500000e+001  4.933013e+001  4.750000e+001
      vertex  5.000000e+000  5.000000e+001  4.500000e+001
      vertex  5.000000e+000  4.933013e+001  4.750000e+001
    endloop
  endfacet
  facet normal  -0.000000e+000  7.071068e-001  7.071068e-001
    outer loop
      vertex  4.500000e+001  4.933013e+001  4.750000e+001
      vertex  5.000000e+000  4.933013e+001  4.750000e+001
      vertex  4.500000e+001  4.750000e+001  4.933013e+001
    endloop
  endfacet
  facet normal  0.000000e+000  7.071068e-001  7.071068e-001
    outer loop
      vertex  4.500000e+001  4.750000e+001  4.933013e+001
      vertex  5.000000e+000  4.933013e+001  4.750000e+001
      vertex  5.000000e+000  4.750000e+001  4.933013e+001
    endloop
  endfacet
  facet normal  -0.000000e+000  2.588188e-001  9.659259e-001
    outer loop
      vertex  4.500000e+001  4.750000e+001  4.933013e+001
      vertex  5.000000e+000  4.750000e+001  4.933013e+001
      vertex  4.500000e+001  4.500000e+001  5.000000e+001
    endloop
  endfacet
  facet normal  0.000000e+000  2.588188e-001  9.659259e-001
    outer loop
      vertex  4.500000e+001  4.500000e+001  5.000000e+001
      vertex  5.000000e+000  4.750000e+001  4.933013e+001
      vertex  5.000000e+000  4.500000e+001  5.000000e+001
    endloop
  endfacet
  facet normal  1.000000e+000  0.000000e+000  0.000000e+000
    outer loop
      vertex  5.000000e+001  5.000000e+000  0.000000e+000
      vertex  5.000000e+001  4.500000e+001  0.000000e+000
      vertex  5.000000e+001  5.000000e+000  4.500000e+001
    endloop
  endfacet
  facet normal  1.000000e+000  -0.000000e+000  0.000000e+000
    outer loop
      vertex  5.000000e+001  5.000000e+000  4.500000e+001
      vertex  5.000000e+001  4.500000e+001  0.000000e+000
      vertex  5.000000e+001  4.500000e+001  4.500000e+001
    endloop
  endfacet
  facet normal  0.000000e+000  1.000000e+000  0.000000e+000
    outer loop
      vertex  4.500000e+001  5.000000e+001  0.000000e+000
      vertex  5.000000e+000  5.000000e+001  0.000000e+000
      vertex  4.500000e+001  5.000000e+001  4.500000e+001
    endloop
  endfacet
  facet normal  0.000000e+000  1.000000e+000  0.000000e+000
    outer loop
      vertex  4.500000e+001  5.000000e+001  4.500000e+001
      vertex  5.000000e+000  5.000000e+001  0.000000e+000
      vertex  5.000000e+000  5.000000e+001  4.500000e+001
    endloop
  endfacet
  facet normal  9.659259e-001 -2.588188e-001  0.000000e+000
    outer loop
      vertex  5.000000e+001  5.000000e+000  0.000000e+000
      vertex  5.000000e+001  5.000000e+000  4.500000e+001
      vertex  4.933013e+001  2.500000e+000  0.000000e+000
    endloop
  endfacet
  facet normal  9.659259e-001 -2.588188e-001  0.000000e+000
    outer loop
      vertex  4.933013e+001  2.500000e+000  0.000000e+000
      vertex  5.000000e+001  5.000000e+000  4.500000e+001
      vertex  4.933013e+001  2.500000e+000  4.500000e+001
    endloop
  endfacet
  facet normal  7.071066e-001 -7.071069e-001  0.000000e+000
    outer loop
      vertex  4.933013e+001  2.500000e+000  0.000000e+000
      vertex  4.933013e+001  2.500000e+000  4.500000e+001
      vertex  4.750000e+001  6.698730e-001  0.000000e+000
    endloop
  endfacet
  facet normal  7.071066e-001 -7.071069e-001  0.000000e+000
    outer loop
      vertex  4.750000e+001  6.698730e-001  0.000000e+000
      vertex  4.933013e+001  2.500000e+000  4.500000e+001
      vertex  4.750000e+001  6.698730e-001  4.500000e+001
    endloop
  endfacet
  facet normal  2.588190e-001 -9.659258e-001  0.000000e+000
    outer loop
      vertex  4.750000e+001  6.698730e-001  0.000000e+000
      vertex  4.750000e+001  6.698730e-001  4.500000e+001
      vertex  4.500000e+001  0.000000e+000  0.000000e+000
    endloop
  endfacet
  facet normal  2.588190e-001 -9.659258e-001  0.000000e+000
    outer loop
      vertex  4.500000e+001  0.000000e+000  0.000000e+000
      vertex  4.750000e+001  6.698730e-001  4.500000e+001
      vertex  4.500000e+001  0.000000e+000  4.500000e+001
    endloop
  endfacet
  facet normal -9.659258e-001  2.588190e-001  0.000000e+000
    outer loop
      vertex  0.000000e+000  4.500000e+001  0.000000e+000
      vertex  0.000000e+000  4.500000e+001  4.500000e+001
      vertex  6.698730e-001  4.750000e+001  0.000000e+000
    endloop
  endfacet
  facet normal -9.659258e-001  2.588190e-001  0.000000e+000
    outer loop
      vertex  6.698730e-001  4.750000e+001  0.000000e+000
      vertex  0.000000e+000  4.500000e+001  4.500000e+001
      vertex  6.698730e-001  4.750000e+001  4.500000e+001
    endloop
  endfacet
  facet normal -7.071069e-001  7.071066e-001  0.000000e+000
    outer loop
      vertex  6.698730e-001  4.750000e+001  0.000000e+000
      vertex  6.698730e-001  4.750000e+001  4.500000e+001
      vertex  2.500000e+000  4.933013e+001  0.000000e+000
    endloop
  endfacet
  facet normal -7.071069e-001  7.071066e-001  0.000000e+000
    outer loop
      vertex  2.500000e+000  4.933013e+001  0.000000e+000
      vertex  6.698730e-001  4.750000e+001  4.500000e+001
      vertex  2.500000e+000  4.933013e+001  4.500000e+001
    endloop
  endfacet
  facet normal -2.588188e-001  9.659259e-001  0.000000e+000
    outer loop
      vertex  2.500000e+000  4.933013e+001  0.000000e+000
      vertex  2.500000e+000  4.933013e+001  4.500000e+001
      vertex  5.000000e+000  5.000000e+001  0.000000e+000
    endloop
  endfacet
  facet normal -2.588188e-001  9.659259e-001  0.000000e+000
    outer loop
      vertex  5.000000e+000  5.000000e+001  0.000000e+000
      vertex  2.500000e+000  4.933013e+001  4.500000e+001
      vertex  5.000000e+000  5.000000e+001  4.500000e+001
    endloop
  endfacet
  facet normal  2.588188e-001  9.659259e-001  0.000000e+000
    outer loop
      vertex  4.500000e+001  5.000000e+001  0.000000e+000
      vertex  4.500000e+001  5.000000e+001  4.500000e+001
      vertex  4.750000e+001  4.933013e+001  0.000000e+000
    endloop
  endfacet
  facet normal  2.588188e-001  9.659259e-001  -0.000000e+000
    outer loop
      vertex  4.750000e+001  4.933013e+001  0.000000e+000
      vertex  4.500000e+001  5.000000e+001  4.500000e+001
      vertex  4.750000e+001  4.933013e+001  4.500000e+001
    endloop
  endfacet
  facet normal  7.071068e-001  7.071068e-001  0.000000e+000
    outer loop
      vertex  4.750000e+001  4.933013e+001  0.000000e+000
      vertex  4.750000e+001  4.933013e+001  4.500000e+001
      vertex  4.933013e+001  4.750000e+001  0.000000e+000
    endloop
  endfacet
  facet normal  7.071068e-001  7.071068e-001  -0.000000e+000
    outer loop
      vertex  4.933013e+001  4.750000e+001  0.000000e+000
      vertex  4.750000e+001  4.933013e+001  4.500000e+001
      vertex  4.933013e+001  4.750000e+001  4.500000e+001
    endloop
  endfacet
  facet normal  9.659259e-001  2.588188e-001  0.000000e+000
    outer loop
      vertex  4.933013e+001  4.750000e+001  0.000000e+000
      vertex  4.933013e+001  4.750000e+001  4.500000e+001
      vertex  5.000000e+001  4.500000e+001  0.000000e+000
    endloop
  endfacet
  facet normal  9.659259e-001  2.588188e-001  -0.000000e+000
    outer loop
      vertex  5.000000e+001  4.500000e+001  0.000000e+000
      vertex  4.933013e+001  4.750000e+001  4.500000e+001
      vertex  5.000000e+001  4.500000e+001  4.500000e+001
    endloop
  endfacet
  facet normal  9.636114e-001  2.581986e-001  6.918443e-002
    outer loop
      vertex  5.000000e+001  4.500000e+001  4.500000e+001
      vertex  4.933013e+001  4.750000e+001  4.500000e+001
      vertex  4.933013e+001  4.716506e+001  4.625000e+001
    endloop
  endfacet
  facet normal  9.636113e-001  1.890146e-001  1.890146e-001
    outer loop
      vertex  5.000000e+001  4.500000e+001  4.500000e+001
      vertex  4.933013e+001  4.716506e+001  4.625000e+001
      vertex  4.933013e+001  4.625000e+001  4.716506e+001
    endloop
  endfacet
  facet normal  9.636114e-001  6.918443e-002  2.581986e-001
    outer loop
      vertex  5.000000e+001  4.500000e+001  4.500000e+001
      vertex  4.933013e+001  4.625000e+001  4.716506e+001
      vertex  4.933013e+001  4.500000e+001  4.750000e+001
    endloop
  endfacet
  facet normal  6.947465e-001  1.861576e-001  6.947465e-001
    outer loop
      vertex  4.933013e+001  4.500000e+001  4.750000e+001
      vertex  4.933013e+001  4.625000e+001  4.716506e+001
      vertex  4.750000e+001  4.500000e+001  4.933013e+001
    endloop
  endfacet
  facet normal  6.947467e-001  1.861571e-001  6.947464e-001
    outer loop
      vertex  4.750000e+001  4.500000e+001  4.933013e+001
      vertex  4.933013e+001  4.625000e+001  4.716506e+001
      vertex  4.750000e+001  4.716506e+001  4.875000e+001
    endloop
  endfacet
  facet normal  2.505625e-001  2.505633e-001  9.351131e-001
    outer loop
      vertex  4.750000e+001  4.500000e+001  4.933013e+001
      vertex  4.750000e+001  4.716506e+001  4.875000e+001
      vertex  4.500000e+001  4.500000e+001  5.000000e+001
    endloop
  endfacet
  facet normal  2.505632e-001  2.505625e-001  9.351131e-001
    outer loop
      vertex  4.500000e+001  4.500000e+001  5.000000e+001
      vertex  4.750000e+001  4.716506e+001  4.875000e+001
      vertex  4.500000e+001  4.750000e+001  4.933013e+001
    endloop
  endfacet
  facet normal  6.947468e-001  6.947462e-001  1.861576e-001
    outer loop
      vertex  4.933013e+001  4.716506e+001  4.625000e+001
      vertex  4.933013e+001  4.750000e+001  4.500000e+001
      vertex  4.750000e+001  4.875000e+001  4.716506e+001
    endloop
  endfacet
  facet normal  6.947466e-001  6.947466e-001  1.861572e-001
    outer loop
      vertex  4.750000e+001  4.875000e+001  4.716506e+001
      vertex  4.933013e+001  4.750000e+001  4.500000e+001
      vertex  4.750000e+001  4.933013e+001  4.500000e+001
    endloop
  endfacet
  facet normal  2.505632e-001  9.351129e-001  2.505632e-001
    outer loop
      vertex  4.750000e+001  4.875000e+001  4.716506e+001
      vertex  4.750000e+001  4.933013e+001  4.500000e+001
      vertex  4.500000e+001  4.933013e+001  4.750000e+001
    endloop
  endfacet
  facet normal  2.505626e-001  9.351133e-001  2.505626e-001
    outer loop
      vertex  4.500000e+001  4.933013e+001  4.750000e+001
      vertex  4.750000e+001  4.933013e+001  4.500000e+001
      vertex  4.500000e+001  5.000000e+001  4.500000e+001
    endloop
  endfacet
  facet normal  6.947464e-001  5.085899e-001  5.085899e-001
    outer loop
      vertex  4.933013e+001  4.625000e+001  4.716506e+001
      vertex  4.933013e+001  4.716506e+001  4.625000e+001
      vertex  4.750000e+001  4.716506e+001  4.875000e+001
    endloop
  endfacet
  facet normal  6.947465e-001  5.085899e-001  5.085899e-001
    outer loop
      vertex  4.750000e+001  4.716506e+001  4.875000e+001
      vertex  4.933013e+001  4.716506e+001  4.625000e+001
      vertex  4.750000e+001  4.875000e+001  4.716506e+001
    endloop
  endfacet
  facet normal  2.505634e-001  6.845502e-001  6.845502e-001
    outer loop
      vertex  4.750000e+001  4.716506e+001  4.875000e+001
      vertex  4.750000e+001  4.875000e+001  4.716506e+001
      vertex  4.500000e+001  4.750000e+001  4.933013e+001
    endloop
  endfacet
  facet normal  2.505634e-001  6.845503e-001  6.845503e-001
    outer loop
      vertex  4.500000e+001  4.750000e+001  4.933013e+001
      vertex  4.750000e+001  4.875000e+001  4.716506e+001
      vertex  4.500000e+001  4.933013e+001  4.750000e+001
    endloop
  endfacet
  facet normal  9.659259e-001  0.000000e+000  2.588188e-001
    outer loop
      vertex  5.000000e+001  5.000000e+000  4.500000e+001
      vertex  5.000000e+001  4.500000e+001  4.500000e+001
      vertex  4.933013e+001  5.000000e+000  4.750000e+001
    endloop
  endfacet
  facet normal  9.659259e-001  -0.000000e+000  2.588188e-001
    outer loop
      vertex  4.933013e+001  5.000000e+000  4.750000e+001
      vertex  5.000000e+001  4.500000e+001  4.500000e+001
      vertex  4.933013e+001  4.500000e+001  4.750000e+001
    endloop
  endfacet
  facet normal  7.071068e-001  0.000000e+000  7.071068e-001
    outer loop
      vertex  4.933013e+001  5.000000e+000  4.750000e+001
      vertex  4.933013e+001  4.500000e+001  4.750000e+001
      vertex  4.750000e+001  5.000000e+000  4.933013e+001
    endloop
  endfacet
  facet normal  7.071068e-001  -0.000000e+000  7.071068e-001
    outer loop
      vertex  4.750000e+001  5.000000e+000  4.933013e+001
      vertex  4.933013e+001  4.500000e+001  4.750000e+001
      vertex  4.750000e+001  4.500000e+001  4.933013e+001
    endloop
  endfacet
  facet normal  2.588188e-001  0.000000e+000  9.659259e-001
    outer loop
      vertex  4.750000e+001  5.000000e+000  4.933013e+001
      vertex  4.750000e+001  4.500000e+001  4.933013e+001
      vertex  4.500000e+001  5.000000e+000  5.000000e+001
    endloop
  endfacet
  facet normal  2.588188e-001  -0.000000e+000  9.659259e-001
    outer loop
      vertex  4.500000e+001  5.000000e+000  5.000000e+001
      vertex  4.750000e+001  4.500000e+001  4.933013e+001
      vertex  4.500000e+001  4.500000e+001  5.000000e+001
    endloop
  endfacet
  facet normal  6.918409e-002 -2.581986e-001  9.636114e-001
    outer loop
      vertex  4.500000e+001  5.000000e+000  5.000000e+001
      vertex  4.500000e+001  2.500000e+000  4.933013e+001
      vertex  4.625000e+001  2.834936e+000  4.933013e+001
    endloop
  endfacet
  facet normal  1.890147e-001 -1.890144e-001  9.636114e-001
    outer loop
      vertex  4.500000e+001  5.000000e+000  5.000000e+001
      vertex  4.625000e+001  2.834936e+000  4.933013e+001
      vertex  4.716506e+001  3.750000e+000  4.933013e+001
    endloop
  endfacet
  facet normal  2.581986e-001 -6.918443e-002  9.636114e-001
    outer loop
      vertex  4.500000e+001  5.000000e+000  5.000000e+001
      vertex  4.716506e+001  3.750000e+000  4.933013e+001
      vertex  4.750000e+001  5.000000e+000  4.933013e+001
    endloop
  endfacet
  facet normal  6.947465e-001 -1.861576e-001  6.947465e-001
    outer loop
      vertex  4.750000e+001  5.000000e+000  4.933013e+001
      vertex  4.716506e+001  3.750000e+000  4.933013e+001
      vertex  4.933013e+001  5.000000e+000  4.750000e+001
    endloop
  endfacet
  facet normal  6.947463e-001 -1.861569e-001  6.947467e-001
    outer loop
      vertex  4.933013e+001  5.000000e+000  4.750000e+001
      vertex  4.716506e+001  3.750000e+000  4.933013e+001
      vertex  4.875000e+001  2.834936e+000  4.750000e+001
    endloop
  endfacet
  facet normal  9.351131e-001 -2.505631e-001  2.505625e-001
    outer loop
      vertex  4.933013e+001  5.000000e+000  4.750000e+001
      vertex  4.875000e+001  2.834936e+000  4.750000e+001
      vertex  5.000000e+001  5.000000e+000  4.500000e+001
    endloop
  endfacet
  facet normal  9.351131e-001 -2.505625e-001  2.505630e-001
    outer loop
      vertex  5.000000e+001  5.000000e+000  4.500000e+001
      vertex  4.875000e+001  2.834936e+000  4.750000e+001
      vertex  4.933013e+001  2.500000e+000  4.500000e+001
    endloop
  endfacet
  facet normal  1.861568e-001 -6.947469e-001  6.947464e-001
    outer loop
      vertex  4.625000e+001  2.834936e+000  4.933013e+001
      vertex  4.500000e+001  2.500000e+000  4.933013e+001
      vertex  4.716506e+001  1.250000e+000  4.750000e+001
    endloop
  endfacet
  facet normal  1.861569e-001 -6.947467e-001  6.947464e-001
    outer loop
      vertex  4.716506e+001  1.250000e+000  4.750000e+001
      vertex  4.500000e+001  2.500000e+000  4.933013e+001
      vertex  4.500000e+001  6.698730e-001  4.750000e+001
    endloop
  endfacet
  facet normal  2.505630e-001 -9.351131e-001  2.505630e-001
    outer loop
      vertex  4.716506e+001  1.250000e+000  4.750000e+001
      vertex  4.500000e+001  6.698730e-001  4.750000e+001
      vertex  4.750000e+001  6.698730e-001  4.500000e+001
    endloop
  endfacet
  facet normal  2.505628e-001 -9.351131e-001  2.505628e-001
    outer loop
      vertex  4.750000e+001  6.698730e-001  4.500000e+001
      vertex  4.500000e+001  6.698730e-001  4.750000e+001
      vertex  4.500000e+001  0.000000e+000  4.500000e+001
    endloop
  endfacet
  facet normal  5.085901e-001 -5.085891e-001  6.947467e-001
    outer loop
      vertex  4.716506e+001  3.750000e+000  4.933013e+001
      vertex  4.625000e+001  2.834936e+000  4.933013e+001
      vertex  4.875000e+001  2.834936e+000  4.750000e+001
    endloop
  endfacet
  facet normal  5.085897e-001 -5.085903e-001  6.947462e-001
    outer loop
      vertex  4.875000e+001  2.834936e+000  4.750000e+001
      vertex  4.625000e+001  2.834936e+000  4.933013e+001
      vertex  4.716506e+001  1.250000e+000  4.750000e+001
    endloop
  endfacet
  facet normal  6.845499e-001 -6.845506e-001  2.505629e-001
    outer loop
      vertex  4.875000e+001  2.834936e+000  4.750000e+001
      vertex  4.716506e+001  1.250000e+000  4.750000e+001
      vertex  4.933013e+001  2.500000e+000  4.500000e+001
    endloop
  endfacet
  facet normal  6.845501e-001 -6.845504e-001  2.505632e-001
    outer loop
      vertex  4.933013e+001  2.500000e+000  4.500000e+001
      vertex  4.716506e+001  1.250000e+000  4.750000e+001
      vertex  4.750000e+001  6.698730e-001  4.500000e+001
    endloop
  endfacet
  facet normal  0.000000e+000 -9.659259e-001  2.588191e-001
    outer loop
      vertex  5.000000e+000  0.000000e+000  4.500000e+001
      vertex  4.500000e+001  0.000000e+000  4.500000e+001
      vertex  5.000000e+000  6.698730e-001  4.750000e+001
    endloop
  endfacet
  facet normal  0.000000e+000 -9.659259e-001  2.588191e-001
    outer loop
      vertex  5.000000e+000  6.698730e-001  4.750000e+001
      vertex  4.500000e+001  0.000000e+000  4.500000e+001
      vertex  4.500000e+001  6.698730e-001  4.750000e+001
    endloop
  endfacet
  facet normal  0.000000e+000 -7.071069e-001  7.071066e-001
    outer loop
      vertex  5.000000e+000  6.698730e-001  4.750000e+001
      vertex  4.500000e+001  6.698730e-001  4.750000e+001
      vertex  5.000000e+000  2.500000e+000  4.933013e+001
    endloop
  endfacet
  facet normal  0.000000e+000 -7.071069e-001  7.071066e-001
    outer loop
      vertex  5.000000e+000  2.500000e+000  4.933013e+001
      vertex  4.500000e+001  6.698730e-001  4.750000e+001
      vertex  4.500000e+001  2.500000e+000  4.933013e+001
    endloop
  endfacet
  facet normal  0.000000e+000 -2.588188e-001  9.659259e-001
    outer loop
      vertex  5.000000e+000  2.500000e+000  4.933013e+001
      vertex  4.500000e+001  2.500000e+000  4.933013e+001
      vertex  5.000000e+000  5.000000e+000  5.000000e+001
    endloop
  endfacet
  facet normal  0.000000e+000 -2.588188e-001  9.659259e-001
    outer loop
      vertex  5.000000e+000  5.000000e+000  5.000000e+001
      vertex  4.500000e+001  2.500000e+000  4.933013e+001
      vertex  4.500000e+001  5.000000e+000  5.000000e+001
    endloop
  endfacet
  facet normal -2.581986e-001 -6.918409e-002  9.636114e-001
    outer loop
      vertex  5.000000e+000  5.000000e+000  5.000000e+001
      vertex  2.500000e+000  5.000000e+000  4.933013e+001
      vertex  2.834936e+000  3.750000e+000  4.933013e+001
    endloop
  endfacet
  facet normal -1.890145e-001 -1.890145e-001  9.636115e-001
    outer loop
      vertex  5.000000e+000  5.000000e+000  5.000000e+001
      vertex  2.834936e+000  3.750000e+000  4.933013e+001
      vertex  3.750000e+000  2.834936e+000  4.933013e+001
    endloop
  endfacet
  facet normal -6.918409e-002 -2.581986e-001  9.636114e-001
    outer loop
      vertex  5.000000e+000  5.000000e+000  5.000000e+001
      vertex  3.750000e+000  2.834936e+000  4.933013e+001
      vertex  5.000000e+000  2.500000e+000  4.933013e+001
    endloop
  endfacet
  facet normal -1.861568e-001 -6.947467e-001  6.947464e-001
    outer loop
      vertex  5.000000e+000  2.500000e+000  4.933013e+001
      vertex  3.750000e+000  2.834936e+000  4.933013e+001
      vertex  5.000000e+000  6.698730e-001  4.750000e+001
    endloop
  endfacet
  facet normal -1.861568e-001 -6.947467e-001  6.947464e-001
    outer loop
      vertex  5.000000e+000  6.698730e-001  4.750000e+001
      vertex  3.750000e+000  2.834936e+000  4.933013e+001
      vertex  2.834936e+000  1.250000e+000  4.750000e+001
    endloop
  endfacet
  facet normal -2.505628e-001 -9.351131e-001  2.505628e-001
    outer loop
      vertex  5.000000e+000  6.698730e-001  4.750000e+001
      vertex  2.834936e+000  1.250000e+000  4.750000e+001
      vertex  5.000000e+000  0.000000e+000  4.500000e+001
    endloop
  endfacet
  facet normal -2.505628e-001 -9.351131e-001  2.505628e-001
    outer loop
      vertex  5.000000e+000  0.000000e+000  4.500000e+001
      vertex  2.834936e+000  1.250000e+000  4.750000e+001
      vertex  2.500000e+000  6.698730e-001  4.500000e+001
    endloop
  endfacet
  facet normal -6.947467e-001 -1.861568e-001  6.947464e-001
    outer loop
      vertex  2.834936e+000  3.750000e+000  4.933013e+001
      vertex  2.500000e+000  5.000000e+000  4.933013e+001
      vertex  1.250000e+000  2.834936e+000  4.750000e+001
    endloop
  endfacet
  facet normal -6.947467e-001 -1.861568e-001  6.947464e-001
    outer loop
      vertex  1.250000e+000  2.834936e+000  4.750000e+001
      vertex  2.500000e+000  5.000000e+000  4.933013e+001
      vertex  6.698730e-001  5.000000e+000  4.750000e+001
    endloop
  endfacet
  facet normal -9.351131e-001 -2.505628e-001  2.505628e-001
    outer loop
      vertex  1.250000e+000  2.834936e+000  4.750000e+001
      vertex  6.698730e-001  5.000000e+000  4.750000e+001
      vertex  6.698730e-001  2.500000e+000  4.500000e+001
    endloop
  endfacet
  facet normal -9.351131e-001 -2.505628e-001  2.505628e-001
    outer loop
      vertex  6.698730e-001  2.500000e+000  4.500000e+001
      vertex  6.698730e-001  5.000000e+000  4.750000e+001
      vertex  0.000000e+000  5.000000e+000  4.500000e+001
    endloop
  endfacet
  facet normal -5.085899e-001 -5.085899e-001  6.947465e-001
    outer loop
      vertex  3.750000e+000  2.834936e+000  4.933013e+001
      vertex  2.834936e+000  3.750000e+000  4.933013e+001
      vertex  2.834936e+000  1.250000e+000  4.750000e+001
    endloop
  endfacet
  facet normal -5.085899e-001 -5.085899e-001  6.947464e-001
    outer loop
      vertex  2.834936e+000  1.250000e+000  4.750000e+001
      vertex  2.834936e+000  3.750000e+000  4.933013e+001
      vertex  1.250000e+000  2.834936e+000  4.750000e+001
    endloop
  endfacet
  facet normal -6.845503e-001 -6.845503e-001  2.505628e-001
    outer loop
      vertex  2.834936e+000  1.250000e+000  4.750000e+001
      vertex  1.250000e+000  2.834936e+000  4.750000e+001
      vertex  2.500000e+000  6.698730e-001  4.500000e+001
    endloop
  endfacet
  facet normal -6.845503e-001 -6.845503e-001  2.505628e-001
    outer loop
      vertex  2.500000e+000  6.698730e-001  4.500000e+001
      vertex  1.250000e+000  2.834936e+000  4.750000e+001
      vertex  6.698730e-001  2.500000e+000  4.500000e+001
    endloop
  endfacet
  facet normal -9.659259e-001  0.000000e+000  2.588191e-001
    outer loop
      vertex  0.000000e+000  4.500000e+001  4.500000e+001
      vertex  0.000000e+000  5.000000e+000  4.500000e+001
      vertex  6.698730e-001  4.500000e+001  4.750000e+001
    endloop
  endfacet
  facet normal -9.659259e-001  0.000000e+000  2.588191e-001
    outer loop
      vertex  6.698730e-001  4.500000e+001  4.750000e+001
      vertex  0.000000e+000  5.000000e+000  4.500000e+001
      vertex  6.698730e-001  5.000000e+000  4.750000e+001
    endloop
  endfacet
  facet normal -7.071069e-001  0.000000e+000  7.071066e-001
    outer loop
      vertex  6.698730e-001  4.500000e+001  4.750000e+001
      vertex  6.698730e-001  5.000000e+000  4.750000e+001
      vertex  2.500000e+000  4.500000e+001  4.933013e+001
    endloop
  endfacet
  facet normal -7.071069e-001  0.000000e+000  7.071066e-001
    outer loop
      vertex  2.500000e+000  4.500000e+001  4.933013e+001
      vertex  6.698730e-001  5.000000e+000  4.750000e+001
      vertex  2.500000e+000  5.000000e+000  4.933013e+001
    endloop
  endfacet
  facet normal -2.588188e-001  0.000000e+000  9.659259e-001
    outer loop
      vertex  2.500000e+000  4.500000e+001  4.933013e+001
      vertex  2.500000e+000  5.000000e+000  4.933013e+001
      vertex  5.000000e+000  4.500000e+001  5.000000e+001
    endloop
  endfacet
  facet normal -2.588188e-001  0.000000e+000  9.659259e-001
    outer loop
      vertex  5.000000e+000  4.500000e+001  5.000000e+001
      vertex  2.500000e+000  5.000000e+000  4.933013e+001
      vertex  5.000000e+000  5.000000e+000  5.000000e+001
    endloop
  endfacet
  facet normal -9.636114e-001  6.918450e-002  2.581989e-001
    outer loop
      vertex  0.000000e+000  4.500000e+001  4.500000e+001
      vertex  6.698730e-001  4.500000e+001  4.750000e+001
      vertex  6.698730e-001  4.625000e+001  4.716506e+001
    endloop
  endfacet
  facet normal -9.636113e-001  1.890148e-001  1.890148e-001
    outer loop
      vertex  0.000000e+000  4.500000e+001  4.500000e+001
      vertex  6.698730e-001  4.625000e+001  4.716506e+001
      vertex  6.698730e-001  4.716506e+001  4.625000e+001
    endloop
  endfacet
  facet normal -9.636114e-001  2.581989e-001  6.918450e-002
    outer loop
      vertex  0.000000e+000  4.500000e+001  4.500000e+001
      vertex  6.698730e-001  4.716506e+001  4.625000e+001
      vertex  6.698730e-001  4.750000e+001  4.500000e+001
    endloop
  endfacet
  facet normal -6.947466e-001  6.947463e-001  1.861576e-001
    outer loop
      vertex  6.698730e-001  4.750000e+001  4.500000e+001
      vertex  6.698730e-001  4.716506e+001  4.625000e+001
      vertex  2.500000e+000  4.933013e+001  4.500000e+001
    endloop
  endfacet
  facet normal -6.947469e-001  6.947463e-001  1.861570e-001
    outer loop
      vertex  2.500000e+000  4.933013e+001  4.500000e+001
      vertex  6.698730e-001  4.716506e+001  4.625000e+001
      vertex  2.500000e+000  4.875000e+001  4.716506e+001
    endloop
  endfacet
  facet normal -2.505625e-001  9.351131e-001  2.505633e-001
    outer loop
      vertex  2.500000e+000  4.933013e+001  4.500000e+001
      vertex  2.500000e+000  4.875000e+001  4.716506e+001
      vertex  5.000000e+000  5.000000e+001  4.500000e+001
    endloop
  endfacet
  facet normal -2.505632e-001  9.351131e-001  2.505625e-001
    outer loop
      vertex  5.000000e+000  5.000000e+001  4.500000e+001
      vertex  2.500000e+000  4.875000e+001  4.716506e+001
      vertex  5.000000e+000  4.933013e+001  4.750000e+001
    endloop
  endfacet
  facet normal -6.947469e-001  1.861575e-001  6.947461e-001
    outer loop
      vertex  6.698730e-001  4.625000e+001  4.716506e+001
      vertex  6.698730e-001  4.500000e+001  4.750000e+001
      vertex  2.500000e+000  4.716506e+001  4.875000e+001
    endloop
  endfacet
  facet normal -6.947467e-001  1.861571e-001  6.947464e-001
    outer loop
      vertex  2.500000e+000  4.716506e+001  4.875000e+001
      vertex  6.698730e-001  4.500000e+001  4.750000e+001
      vertex  2.500000e+000  4.500000e+001  4.933013e+001
    endloop
  endfacet
  facet normal -2.505632e-001  2.505632e-001  9.351129e-001
    outer loop
      vertex  2.500000e+000  4.716506e+001  4.875000e+001
      vertex  2.500000e+000  4.500000e+001  4.933013e+001
      vertex  5.000000e+000  4.750000e+001  4.933013e+001
    endloop
  endfacet
  facet normal -2.505626e-001  2.505626e-001  9.351133e-001
    outer loop
      vertex  5.000000e+000  4.750000e+001  4.933013e+001
      vertex  2.500000e+000  4.500000e+001  4.933013e+001
      vertex  5.000000e+000  4.500000e+001  5.000000e+001
    endloop
  endfacet
  facet normal -6.947466e-001  5.085898e-001  5.085898e-001
    outer loop
      vertex  6.698730e-001  4.716506e+001  4.625000e+001
      vertex  6.698730e-001  4.625000e+001  4.716506e+001
      vertex  2.500000e+000  4.875000e+001  4.716506e+001
    endloop
  endfacet
  facet normal -6.947466e-001  5.085897e-001  5.085897e-001
    outer loop
      vertex  2.500000e+000  4.875000e+001  4.716506e+001
      vertex  6.698730e-001  4.625000e+001  4.716506e+001
      vertex  2.500000e+000  4.716506e+001  4.875000e+001
    endloop
  endfacet
  facet normal -2.505634e-001  6.845502e-001  6.845502e-001
    outer loop
      vertex  2.500000e+000  4.875000e+001  4.716506e+001
      vertex  2.500000e+000  4.716506e+001  4.875000e+001
      vertex  5.000000e+000  4.933013e+001  4.750000e+001
    endloop
  endfacet
  facet normal -2.505634e-001  6.845503e-001  6.845503e-001
    outer loop
      vertex  5.000000e+000  4.933013e+001  4.750000e+001
      vertex  2.500000e+000  4.716506e+001  4.875000e+001
      vertex  5.000000e+000  4.750000e+001  4.933013e+001
    endloop
  endfacet
endsolid CATIA STL
