solid CATIA STL
  facet normal  -0.000000e+000  0.000000e+000  1.000000e+000
    outer loop
      vertex  1.250000e+001  2.165063e+001  5.000000e+001
      vertex -1.250000e+001  2.165063e+001  5.000000e+001
      vertex  2.500000e+001  7.105427e-015  5.000000e+001
    endloop
  endfacet
  facet normal  0.000000e+000  0.000000e+000  1.000000e+000
    outer loop
      vertex  2.500000e+001  7.105427e-015  5.000000e+001
      vertex -1.250000e+001  2.165063e+001  5.000000e+001
      vertex -2.500000e+001  2.131628e-014  5.000000e+001
    endloop
  endfacet
  facet normal  0.000000e+000  0.000000e+000  1.000000e+000
    outer loop
      vertex  2.500000e+001  7.105427e-015  5.000000e+001
      vertex -2.500000e+001  2.131628e-014  5.000000e+001
      vertex  1.250000e+001 -2.165063e+001  5.000000e+001
    endloop
  endfacet
  facet normal  0.000000e+000  0.000000e+000  1.000000e+000
    outer loop
      vertex  1.250000e+001 -2.165063e+001  5.000000e+001
      vertex -2.500000e+001  2.131628e-014  5.000000e+001
      vertex -1.250000e+001 -2.165063e+001  5.000000e+001
    endloop
  endfacet
  facet normal  0.000000e+000  0.000000e+000 -1.000000e+000
    outer loop
      vertex  1.250000e+001  2.165063e+001  0.000000e+000
      vertex  2.500000e+001  7.105427e-015  0.000000e+000
      vertex -1.250000e+001  2.165063e+001  0.000000e+000
    endloop
  endfacet
  facet normal  0.000000e+000  -0.000000e+000 -1.000000e+000
    outer loop
      vertex -1.250000e+001  2.165063e+001  0.000000e+000
      vertex  2.500000e+001  7.105427e-015  0.000000e+000
      vertex -2.500000e+001  2.131628e-014  0.000000e+000
    endloop
  endfacet
  facet normal  0.000000e+000  0.000000e+000 -1.000000e+000
    outer loop
      vertex  2.500000e+001  7.105427e-015  0.000000e+000
      vertex  1.250000e+001 -2.165063e+001  0.000000e+000
      vertex -2.500000e+001  2.131628e-014  0.000000e+000
    endloop
  endfacet
  facet normal  0.000000e+000  0.000000e+000 -1.000000e+000
    outer loop
      vertex -2.500000e+001  2.131628e-014  0.000000e+000
      vertex  1.250000e+001 -2.165063e+001  0.000000e+000
      vertex -1.250000e+001 -2.165063e+001  0.000000e+000
    endloop
  endfacet
  facet normal  0.000000e+000 -1.000000e+000  0.000000e+000
    outer loop
      vertex -1.250000e+001 -2.165063e+001  0.000000e+000
      vertex  1.250000e+001 -2.165063e+001  0.000000e+000
      vertex -1.250000e+001 -2.165063e+001  5.000000e+001
    endloop
  endfacet
  facet normal  0.000000e+000 -1.000000e+000  0.000000e+000
    outer loop
      vertex -1.250000e+001 -2.165063e+001  5.000000e+001
      vertex  1.250000e+001 -2.165063e+001  0.000000e+000
      vertex  1.250000e+001 -2.165063e+001  5.000000e+001
    endloop
  endfacet
  facet normal -8.660254e-001 -5.000000e-001  0.000000e+000
    outer loop
      vertex -2.500000e+001  2.131628e-014  0.000000e+000
      vertex -1.250000e+001 -2.165063e+001  0.000000e+000
      vertex -2.500000e+001  2.131628e-014  5.000000e+001
    endloop
  endfacet
  facet normal -8.660254e-001 -5.000000e-001  0.000000e+000
    outer loop
      vertex -2.500000e+001  2.131628e-014  5.000000e+001
      vertex -1.250000e+001 -2.165063e+001  0.000000e+000
      vertex -1.250000e+001 -2.165063e+001  5.000000e+001
    endloop
  endfacet
  facet normal -8.660254e-001  5.000000e-001  0.000000e+000
    outer loop
      vertex -1.250000e+001  2.165063e+001  0.000000e+000
      vertex -2.500000e+001  2.131628e-014  0.000000e+000
      vertex -1.250000e+001  2.165063e+001  5.000000e+001
    endloop
  endfacet
  facet normal -8.660254e-001  5.000000e-001  0.000000e+000
    outer loop
      vertex -1.250000e+001  2.165063e+001  5.000000e+001
      vertex -2.500000e+001  2.131628e-014  0.000000e+000
      vertex -2.500000e+001  2.131628e-014  5.000000e+001
    endloop
  endfacet
  facet normal  0.000000e+000  1.000000e+000  0.000000e+000
    outer loop
      vertex  1.250000e+001  2.165063e+001  0.000000e+000
      vertex -1.250000e+001  2.165063e+001  0.000000e+000
      vertex  1.250000e+001  2.165063e+001  5.000000e+001
    endloop
  endfacet
  facet normal  0.000000e+000  1.000000e+000  0.000000e+000
    outer loop
      vertex  1.250000e+001  2.165063e+001  5.000000e+001
      vertex -1.250000e+001  2.165063e+001  0.000000e+000
      vertex -1.250000e+001  2.165063e+001  5.000000e+001
    endloop
  endfacet
  facet normal  8.660254e-001  5.000000e-001  0.000000e+000
    outer loop
      vertex  2.500000e+001  7.105427e-015  0.000000e+000
      vertex  1.250000e+001  2.165063e+001  0.000000e+000
      vertex  2.500000e+001  7.105427e-015  5.000000e+001
    endloop
  endfacet
  facet normal  8.660254e-001  5.000000e-001  0.000000e+000
    outer loop
      vertex  2.500000e+001  7.105427e-015  5.000000e+001
      vertex  1.250000e+001  2.165063e+001  0.000000e+000
      vertex  1.250000e+001  2.165063e+001  5.000000e+001
    endloop
  endfacet
  facet normal  8.660254e-001 -5.000000e-001  0.000000e+000
    outer loop
      vertex  1.250000e+001 -2.165063e+001  0.000000e+000
      vertex  2.500000e+001  7.105427e-015  0.000000e+000
      vertex  1.250000e+001 -2.165063e+001  5.000000e+001
    endloop
  endfacet
  facet normal  8.660254e-001 -5.000000e-001  0.000000e+000
    outer loop
      vertex  1.250000e+001 -2.165063e+001  5.000000e+001
      vertex  2.500000e+001  7.105427e-015  0.000000e+000
      vertex  2.500000e+001  7.105427e-015  5.000000e+001
    endloop
  endfacet
  facet normal  -0.000000e+000  0.000000e+000  1.000000e+000
    outer loop
      vertex  1.250000e+001  2.165063e+001  5.000000e+001
      vertex -1.250000e+001  2.165063e+001  5.000000e+001
      vertex  2.500000e+001  7.105427e-015  5.000000e+001
    endloop
  endfacet
  facet normal  0.000000e+000  0.000000e+000  1.000000e+000
    outer loop
      vertex  2.500000e+001  7.105427e-015  5.000000e+001
      vertex -1.250000e+001  2.165063e+001  5.000000e+001
      vertex -2.500000e+001  2.131628e-014  5.000000e+001
    endloop
  endfacet
  facet normal  0.000000e+000  0.000000e+000  1.000000e+000
    outer loop
      vertex  2.500000e+001  7.105427e-015  5.000000e+001
      vertex -2.500000e+001  2.131628e-014  5.000000e+001
      vertex  1.250000e+001 -2.165063e+001  5.000000e+001
    endloop
  endfacet
  facet normal  0.000000e+000  0.000000e+000  1.000000e+000
    outer loop
      vertex  1.250000e+001 -2.165063e+001  5.000000e+001
      vertex -2.500000e+001  2.131628e-014  5.000000e+001
      vertex -1.250000e+001 -2.165063e+001  5.000000e+001
    endloop
  endfacet
  facet normal  0.000000e+000  0.000000e+000 -1.000000e+000
    outer loop
      vertex  1.250000e+001  2.165063e+001  0.000000e+000
      vertex  2.500000e+001  7.105427e-015  0.000000e+000
      vertex -1.250000e+001  2.165063e+001  0.000000e+000
    endloop
  endfacet
  facet normal  0.000000e+000  -0.000000e+000 -1.000000e+000
    outer loop
      vertex -1.250000e+001  2.165063e+001  0.000000e+000
      vertex  2.500000e+001  7.105427e-015  0.000000e+000
      vertex -2.500000e+001  2.131628e-014  0.000000e+000
    endloop
  endfacet
  facet normal  0.000000e+000  0.000000e+000 -1.000000e+000
    outer loop
      vertex  2.500000e+001  7.105427e-015  0.000000e+000
      vertex  1.250000e+001 -2.165063e+001  0.000000e+000
      vertex -2.500000e+001  2.131628e-014  0.000000e+000
    endloop
  endfacet
  facet normal  0.000000e+000  0.000000e+000 -1.000000e+000
    outer loop
      vertex -2.500000e+001  2.131628e-014  0.000000e+000
      vertex  1.250000e+001 -2.165063e+001  0.000000e+000
      vertex -1.250000e+001 -2.165063e+001  0.000000e+000
    endloop
  endfacet
  facet normal  0.000000e+000 -1.000000e+000  0.000000e+000
    outer loop
      vertex -1.250000e+001 -2.165063e+001  0.000000e+000
      vertex  1.250000e+001 -2.165063e+001  0.000000e+000
      vertex -1.250000e+001 -2.165063e+001  5.000000e+001
    endloop
  endfacet
  facet normal  0.000000e+000 -1.000000e+000  0.000000e+000
    outer loop
      vertex -1.250000e+001 -2.165063e+001  5.000000e+001
      vertex  1.250000e+001 -2.165063e+001  0.000000e+000
      vertex  1.250000e+001 -2.165063e+001  5.000000e+001
    endloop
  endfacet
  facet normal -8.660254e-001 -5.000000e-001  0.000000e+000
    outer loop
      vertex -2.500000e+001  2.131628e-014  0.000000e+000
      vertex -1.250000e+001 -2.165063e+001  0.000000e+000
      vertex -2.500000e+001  2.131628e-014  5.000000e+001
    endloop
  endfacet
  facet normal -8.660254e-001 -5.000000e-001  0.000000e+000
    outer loop
      vertex -2.500000e+001  2.131628e-014  5.000000e+001
      vertex -1.250000e+001 -2.165063e+001  0.000000e+000
      vertex -1.250000e+001 -2.165063e+001  5.000000e+001
    endloop
  endfacet
  facet normal -8.660254e-001  5.000000e-001  0.000000e+000
    outer loop
      vertex -1.250000e+001  2.165063e+001  0.000000e+000
      vertex -2.500000e+001  2.131628e-014  0.000000e+000
      vertex -1.250000e+001  2.165063e+001  5.000000e+001
    endloop
  endfacet
  facet normal -8.660254e-001  5.000000e-001  0.000000e+000
    outer loop
      vertex -1.250000e+001  2.165063e+001  5.000000e+001
      vertex -2.500000e+001  2.131628e-014  0.000000e+000
      vertex -2.500000e+001  2.131628e-014  5.000000e+001
    endloop
  endfacet
  facet normal  0.000000e+000  1.000000e+000  0.000000e+000
    outer loop
      vertex  1.250000e+001  2.165063e+001  0.000000e+000
      vertex -1.250000e+001  2.165063e+001  0.000000e+000
      vertex  1.250000e+001  2.165063e+001  5.000000e+001
    endloop
  endfacet
  facet normal  0.000000e+000  1.000000e+000  0.000000e+000
    outer loop
      vertex  1.250000e+001  2.165063e+001  5.000000e+001
      vertex -1.250000e+001  2.165063e+001  0.000000e+000
      vertex -1.250000e+001  2.165063e+001  5.000000e+001
    endloop
  endfacet
  facet normal  8.660254e-001  5.000000e-001  0.000000e+000
    outer loop
      vertex  2.500000e+001  7.105427e-015  0.000000e+000
      vertex  1.250000e+001  2.165063e+001  0.000000e+000
      vertex  2.500000e+001  7.105427e-015  5.000000e+001
    endloop
  endfacet
  facet normal  8.660254e-001  5.000000e-001  0.000000e+000
    outer loop
      vertex  2.500000e+001  7.105427e-015  5.000000e+001
      vertex  1.250000e+001  2.165063e+001  0.000000e+000
      vertex  1.250000e+001  2.165063e+001  5.000000e+001
    endloop
  endfacet
  facet normal  8.660254e-001 -5.000000e-001  0.000000e+000
    outer loop
      vertex  1.250000e+001 -2.165063e+001  0.000000e+000
      vertex  2.500000e+001  7.105427e-015  0.000000e+000
      vertex  1.250000e+001 -2.165063e+001  5.000000e+001
    endloop
  endfacet
  facet normal  8.660254e-001 -5.000000e-001  0.000000e+000
    outer loop
      vertex  1.250000e+001 -2.165063e+001  5.000000e+001
      vertex  2.500000e+001  7.105427e-015  0.000000e+000
      vertex  2.500000e+001  7.105427e-015  5.000000e+001
    endloop
  endfacet
endsolid CATIA STL
